<svg version="1.1" id="Layer_1" xmlns="http://www.w3.org/2000/svg" xmlns:xlink="http://www.w3.org/1999/xlink" x="0px" y="0px"
	 width="100%" viewBox="0 0 528 516" enable-background="new 0 0 528 516" xml:space="preserve">
<path fill="#0D0A18" opacity="1.000000" stroke="none" 
	d="
M529.000000,176.000000 
	C529.000000,289.972809 529.000000,403.445648 529.000000,516.959229 
	C353.069336,516.959229 177.138641,516.959229 1.103973,516.959229 
	C1.103973,345.110565 1.103973,173.221024 1.103973,1.165747 
	C176.999878,1.165747 352.999939,1.165747 529.000000,1.165747 
	C529.000000,59.194645 529.000000,117.347321 529.000000,176.000000 
M196.105804,356.135559 
	C196.105804,356.135559 196.136032,356.301849 196.730667,356.206024 
	C197.150635,355.802185 197.570602,355.398376 198.000000,355.000000 
	C198.000000,355.000000 197.995209,354.991241 198.621033,354.858276 
	C199.250763,354.285889 199.880478,353.713501 201.137482,352.987762 
	C203.788589,350.768463 206.439682,348.549164 209.680908,346.050385 
	C209.967834,345.727356 210.254776,345.404327 211.041519,345.072296 
	C211.369843,344.737854 211.698166,344.403442 212.659317,343.880646 
	C214.124741,342.599701 215.590164,341.318787 217.001541,340.001221 
	C217.001541,340.001221 217.035477,340.056976 217.672623,339.881195 
	C219.166382,338.621857 220.660141,337.362518 222.099518,336.113007 
	C222.099518,336.113007 222.146469,336.148346 222.823883,335.956512 
	C223.826462,334.821136 224.829041,333.685760 226.584549,331.697723 
	C208.487305,331.697723 191.581421,331.676910 174.675934,331.748322 
	C173.637863,331.752686 172.420349,332.256744 171.594818,332.915161 
	C163.682251,339.225250 155.836121,345.618713 147.314453,352.140137 
	C137.633514,359.920929 127.986168,367.744293 118.236099,375.437469 
	C116.738304,376.619324 114.767342,377.201508 112.089943,377.885773 
	C104.419159,377.860168 96.748375,377.834564 89.143127,376.925934 
	C89.089622,373.950104 89.036118,370.974243 89.176849,367.078491 
	C89.113098,352.265259 89.049347,337.451996 89.218735,321.774078 
	C89.233025,280.018585 89.267662,238.263077 89.220100,196.507660 
	C89.216583,193.417892 88.368675,190.329300 88.362503,187.239273 
	C88.353683,182.826508 88.759964,178.412933 89.186584,173.080154 
	C89.162392,147.586533 89.138199,122.092896 90.031647,96.435181 
	C109.858429,96.373047 129.685211,96.311172 149.511993,96.248734 
	C174.667419,96.169510 199.822845,96.089828 225.896423,96.231239 
	C265.968109,96.247726 306.039795,96.297684 346.111450,96.265854 
	C364.726257,96.251068 383.340942,96.077301 402.879791,96.196671 
	C408.586792,96.139977 414.293823,96.083275 420.817810,96.242188 
	C422.217041,96.170067 423.616272,96.097946 425.719116,96.244789 
	C427.189758,96.344475 428.660400,96.444168 430.070770,96.817162 
	C430.070770,96.817162 430.321167,96.942162 430.227692,97.454742 
	C430.289185,97.617172 430.350647,97.779602 430.221313,98.799202 
	C430.279419,100.548691 430.337524,102.298187 430.237671,104.500359 
	C430.237671,104.500359 430.415253,104.945702 430.240204,105.873688 
	C430.319153,116.241615 430.398071,126.609550 430.259521,137.724579 
	C430.338776,138.490555 430.418060,139.256516 430.317047,140.667236 
	C430.383362,141.103943 430.449707,141.540665 430.285522,142.800735 
	C430.369202,144.213135 430.452881,145.625534 430.314941,147.908524 
	C430.409149,150.591232 430.503387,153.273956 430.327332,156.864761 
	C430.327332,164.533340 430.327332,172.201935 430.327332,180.954117 
	C435.335663,176.947952 439.305267,173.772659 443.773102,170.333176 
	C443.888763,169.981949 444.004395,169.630737 444.836334,169.201767 
	C446.305267,167.835114 447.774200,166.468460 449.804443,164.996460 
	C450.233521,164.393707 450.662598,163.790970 451.815033,163.110794 
	C453.952026,161.471115 456.088989,159.831436 458.083069,158.107483 
	C458.083069,158.107483 458.181213,158.241241 458.610107,158.259338 
	C459.053864,157.787811 459.497650,157.316269 460.631622,156.803711 
	C462.779236,155.249985 464.926849,153.696259 467.727661,151.927231 
	C470.824188,149.686493 473.840668,147.322479 477.042053,145.243149 
	C479.709625,143.510513 480.598114,141.390305 480.478241,138.168198 
	C480.175323,130.025726 480.328644,121.866493 480.287506,113.714027 
	C480.176880,91.785103 480.060181,69.856224 479.431702,47.279560 
	C458.621002,47.320774 437.810333,47.361988 416.117401,47.290821 
	C413.747620,47.331036 411.377808,47.371254 408.094788,47.184044 
	C391.728668,47.253952 375.362518,47.323860 358.073853,47.291027 
	C353.724976,47.309422 349.376099,47.327816 344.112732,47.107811 
	C336.400696,47.193336 328.688660,47.278862 320.098480,47.278477 
	C317.745667,47.299259 315.392883,47.320042 312.168976,47.097591 
	C309.769196,47.180763 307.369415,47.263935 304.049408,47.277691 
	C300.034363,47.357079 296.019287,47.436462 291.375793,47.312340 
	C290.937103,47.330891 290.498444,47.349442 289.507446,47.174404 
	C289.319244,47.225693 289.131012,47.276985 288.024719,47.218449 
	C283.367615,47.247223 278.710541,47.275993 273.496765,47.134365 
	C273.315186,47.202724 273.133575,47.271084 272.076721,47.270695 
	C269.736481,47.302689 267.396240,47.334682 264.498505,47.178288 
	C264.312286,47.239906 264.126068,47.301521 263.311920,47.278404 
	C262.891388,47.306610 262.470856,47.334816 261.364655,47.133881 
	C260.895050,47.210094 260.425476,47.286308 259.030426,47.272156 
	C253.373352,47.275711 247.716278,47.279266 241.500244,47.111408 
	C241.315079,47.172157 241.129898,47.232910 240.021332,47.215160 
	C235.009277,47.297535 229.997238,47.379910 224.068695,47.271687 
	C216.401245,47.278744 208.733780,47.285805 200.499451,47.117279 
	C200.311325,47.178436 200.123215,47.239594 199.009872,47.220966 
	C192.027802,47.236336 185.045731,47.251705 177.499023,47.093021 
	C177.312317,47.155724 177.125610,47.218430 176.084076,47.210876 
	C170.386520,47.278461 164.688965,47.346050 158.081268,47.229038 
	C153.738770,47.251087 149.396271,47.273132 144.137085,47.053036 
	C120.743446,47.128483 97.349808,47.203930 73.044388,47.211811 
	C69.380684,47.227737 65.716972,47.243664 61.252300,47.030895 
	C60.153240,47.107925 59.054180,47.184956 57.028313,47.195892 
	C51.705452,47.223858 46.382595,47.251820 40.478069,47.063229 
	C40.125591,47.432327 39.773113,47.801426 39.263332,49.072342 
	C39.256466,54.735603 39.231480,60.398911 39.245964,66.062119 
	C39.299618,87.042572 39.366291,108.022987 39.227161,129.917755 
	C39.300453,135.277176 39.373745,140.636612 39.250034,146.914902 
	C39.310894,154.277695 39.371754,161.640503 39.241127,169.921295 
	C39.228191,184.856247 39.170792,199.791321 39.214249,214.726120 
	C39.262039,231.146439 39.402641,247.566467 39.289352,264.804230 
	C39.354950,266.203033 39.420547,267.601868 39.278030,269.783234 
	C39.338158,270.854889 39.398285,271.926514 39.240631,273.911407 
	C39.268028,294.924133 39.295422,315.936890 39.072506,337.652985 
	C39.148495,338.138428 39.224487,338.623901 39.215492,339.961212 
	C39.243496,341.959320 39.271500,343.957458 39.052670,346.842712 
	C39.146500,349.601440 39.240326,352.360138 39.252281,356.010834 
	C39.330368,359.006439 39.408455,362.002075 39.273556,365.780518 
	C39.331688,366.854126 39.389816,367.927765 39.231777,369.868561 
	C39.318413,372.241913 39.405048,374.615234 39.304501,377.739349 
	C39.387966,379.822601 39.471432,381.905884 39.323898,384.893524 
	C39.323898,415.755249 39.323898,446.616974 39.323898,478.714935 
	C51.077602,469.316162 61.799931,460.742126 73.121864,451.953003 
	C78.825363,447.403107 84.528862,442.853210 90.184372,438.290527 
	C90.184372,438.290527 90.226570,438.285889 90.843758,438.152710 
	C91.937538,437.189392 93.031311,436.226044 94.796730,435.078217 
	C98.301888,432.192688 101.807045,429.307159 105.277138,426.236816 
	C105.277138,426.236816 105.236717,426.420532 105.855858,426.312469 
	C106.315414,425.902771 106.774963,425.493103 107.914169,424.976257 
	C111.377563,422.280640 114.857147,419.605530 118.301186,416.885376 
	C126.961761,410.045166 135.606277,403.184570 144.195557,396.183960 
	C144.195557,396.183960 144.342865,396.247864 144.876038,396.160004 
	C145.253403,395.781921 145.630768,395.403870 146.664108,394.839813 
	C152.132355,390.574097 157.600601,386.308380 163.008881,382.005066 
	C163.008881,382.005066 163.027283,382.073395 163.609650,381.880402 
	C163.838028,381.547180 164.066406,381.213928 164.919678,380.742371 
	C170.083282,376.690033 175.246887,372.637665 180.382568,368.557343 
	C180.382568,368.557343 180.395004,368.523376 180.970123,368.382172 
	C181.357269,367.954224 181.744431,367.526276 182.022812,367.049774 
	C182.022812,367.049774 182.097275,367.142731 182.762787,366.997925 
	C184.625198,365.441528 186.487610,363.885132 188.233719,362.248505 
	C188.233719,362.248505 188.245392,362.389313 188.911682,362.228271 
	C190.991608,360.519653 193.071533,358.811035 195.066559,357.074188 
	C195.066559,357.074188 195.066376,357.163666 195.626953,357.049927 
	C195.842590,356.751251 196.058212,356.452576 196.105804,356.135559 
M402.091248,371.361084 
	C352.949890,371.397369 303.808380,371.395416 254.667557,371.578369 
	C252.102356,371.587921 249.075989,372.564209 247.055084,374.118561 
	C231.350327,386.197693 215.823837,398.509186 200.280884,410.797729 
	C196.496185,413.790009 192.854782,416.963562 189.041519,420.142090 
	C189.651031,420.563904 189.771912,420.720856 189.892838,420.720886 
	C265.523438,420.751404 341.154083,420.789612 416.784546,420.695160 
	C418.853790,420.692566 421.299255,419.731720 422.931702,418.422668 
	C441.244568,403.737518 459.483948,388.958649 477.561584,373.985901 
	C479.119965,372.695160 480.131683,369.845398 480.139954,367.714966 
	C480.304321,325.401672 480.285767,283.087677 480.289276,240.773819 
	C480.289398,239.147400 480.139069,237.520966 480.049133,235.697754 
	C478.639435,235.623688 477.504547,235.511719 476.369629,235.511871 
	C405.736969,235.521454 335.104340,235.566315 264.471680,235.540649 
	C245.663528,235.533813 226.855423,235.313400 207.549866,234.563126 
	C205.022736,234.745651 202.495590,234.928177 199.177032,234.712387 
	C199.140961,229.885132 198.855408,225.040161 199.195923,220.239624 
	C199.325790,218.408615 200.458389,216.154739 201.872253,214.988876 
	C211.118149,207.364929 220.472870,199.862961 230.023376,192.626450 
	C232.067902,191.077316 235.059372,190.027954 237.618927,190.019302 
	C288.924469,189.845764 340.230652,189.858612 391.536713,189.834061 
	C393.645386,189.833054 395.754059,189.833923 398.127930,189.833923 
	C398.127930,173.869965 398.143097,158.562195 398.076752,143.254776 
	C398.073883,142.587479 397.323090,141.923447 396.763000,140.874557 
	C396.491425,141.012054 396.219879,141.149551 395.061310,141.596008 
	C381.391785,141.492691 367.722229,141.389389 353.855743,140.893387 
	C353.555023,141.016617 353.254272,141.139847 352.063354,141.563721 
	C341.961517,141.588165 331.859406,141.668671 321.757874,141.623474 
	C307.863983,141.561295 293.970520,141.404037 279.606201,140.634293 
	C277.380096,140.850342 275.153961,141.066391 272.247803,141.592239 
	C271.522675,141.492218 270.797516,141.392212 269.709778,140.700058 
	C268.781403,140.905838 267.852997,141.111633 266.112152,141.628128 
	C264.101807,141.535217 262.091461,141.442307 259.783081,140.796707 
	C259.163055,140.980850 258.543060,141.164978 257.339081,141.629349 
	C256.934479,141.514923 256.529877,141.400513 255.581451,140.608292 
	C245.377579,140.468185 235.173767,140.318024 224.969437,140.235046 
	C224.654480,140.232498 224.333847,140.926788 223.230606,141.604950 
	C218.760391,142.081879 214.283600,140.795502 210.026230,144.299850 
	C190.746140,160.169800 171.212708,175.734543 151.625214,191.225525 
	C148.808960,193.452789 147.936905,195.720261 147.954407,199.183075 
	C148.090759,226.173950 148.025955,253.165833 148.023331,280.157410 
	C148.023193,281.602112 148.023315,283.046783 148.023315,284.917542 
	C242.054398,284.917542 335.605743,284.917542 428.970215,284.917542 
	C429.296753,285.644440 429.545898,285.940826 429.546906,286.238098 
	C429.617096,306.730255 429.691620,327.222504 429.654755,347.714569 
	C429.652710,348.858978 429.025269,350.371063 428.167389,351.087402 
	C420.514221,357.477753 412.743652,363.727509 404.645721,369.564941 
	C404.094849,370.072479 403.543976,370.579987 402.091248,371.361084 
z"/>
<path fill="#FCFCFC" opacity="1.000000" stroke="none" 
	d="
M256.125275,141.286087 
	C256.529877,141.400513 256.934479,141.514923 257.983093,141.618256 
	C259.111786,141.521240 259.596436,141.435333 260.081116,141.349396 
	C262.091461,141.442307 264.101807,141.535217 266.901428,141.605560 
	C268.484619,141.486053 269.278503,141.389114 270.072388,141.292175 
	C270.797516,141.392212 271.522675,141.492218 273.018829,141.574402 
	C275.885529,141.466858 277.981201,141.377182 280.076874,141.287506 
	C293.970520,141.404037 307.863983,141.561295 321.757874,141.623474 
	C331.859406,141.668671 341.961517,141.588165 352.780701,141.541382 
	C353.682922,141.441406 353.867798,141.363739 354.052704,141.286072 
	C367.722229,141.389389 381.391785,141.492691 395.751587,141.557098 
	C396.601440,141.431427 396.761047,141.344666 396.920654,141.257904 
	C397.323090,141.923447 398.073883,142.587479 398.076752,143.254776 
	C398.143097,158.562195 398.127930,173.869965 398.127930,189.833923 
	C395.754059,189.833923 393.645386,189.833054 391.536713,189.834061 
	C340.230652,189.858612 288.924469,189.845764 237.618927,190.019302 
	C235.059372,190.027954 232.067902,191.077316 230.023376,192.626450 
	C220.472870,199.862961 211.118149,207.364929 201.872253,214.988876 
	C200.458389,216.154739 199.325790,218.408615 199.195923,220.239624 
	C198.855408,225.040161 199.140961,229.885132 199.994278,235.083344 
	C203.223450,235.366562 205.635376,235.278809 208.047302,235.191040 
	C226.855423,235.313400 245.663528,235.533813 264.471680,235.540649 
	C335.104340,235.566315 405.736969,235.521454 476.369629,235.511871 
	C477.504547,235.511719 478.639435,235.623688 480.049133,235.697754 
	C480.139069,237.520966 480.289398,239.147400 480.289276,240.773819 
	C480.285767,283.087677 480.304321,325.401672 480.139954,367.714966 
	C480.131683,369.845398 479.119965,372.695160 477.561584,373.985901 
	C459.483948,388.958649 441.244568,403.737518 422.931702,418.422668 
	C421.299255,419.731720 418.853790,420.692566 416.784546,420.695160 
	C341.154083,420.789612 265.523438,420.751404 189.892838,420.720886 
	C189.771912,420.720856 189.651031,420.563904 189.041519,420.142090 
	C192.854782,416.963562 196.496185,413.790009 200.280884,410.797729 
	C215.823837,398.509186 231.350327,386.197693 247.055084,374.118561 
	C249.075989,372.564209 252.102356,371.587921 254.667557,371.578369 
	C303.808380,371.395416 352.949890,371.397369 402.857880,371.285217 
	C404.085571,370.812469 404.546631,370.415588 405.007690,370.018738 
	C412.743652,363.727509 420.514221,357.477753 428.167389,351.087402 
	C429.025269,350.371063 429.652710,348.858978 429.654755,347.714569 
	C429.691620,327.222504 429.617096,306.730255 429.546906,286.238098 
	C429.545898,285.940826 429.296753,285.644440 428.970215,284.917542 
	C335.605743,284.917542 242.054398,284.917542 148.023315,284.917542 
	C148.023315,283.046783 148.023193,281.602112 148.023331,280.157410 
	C148.025955,253.165833 148.090759,226.173950 147.954407,199.183075 
	C147.936905,195.720261 148.808960,193.452789 151.625214,191.225525 
	C171.212708,175.734543 190.746140,160.169800 210.026230,144.299850 
	C214.283600,140.795502 218.760391,142.081879 224.071259,141.592224 
	C235.316360,141.481689 245.720825,141.383896 256.125275,141.286087 
z"/>
<path fill="#A454F9" opacity="1.000000" stroke="none" 
	d="
M430.395630,104.047676 
	C430.337524,102.298187 430.279419,100.548691 430.428619,98.261566 
	C430.738892,97.392601 430.633972,97.132011 430.321167,96.942162 
	C430.321167,96.942162 430.070770,96.817162 429.988647,96.401321 
	C429.265900,94.995415 428.625244,94.005341 428.178650,92.773697 
	C429.847260,92.739098 431.321777,92.946068 432.796326,93.153046 
	C433.006744,92.725311 433.217163,92.297577 433.427582,91.869850 
	C429.377014,89.596222 425.326447,87.322586 419.921967,84.289001 
	C423.817383,83.281563 426.268402,82.258644 428.778259,82.084618 
	C433.159424,81.780838 437.579315,82.090843 441.978149,81.969162 
	C445.271271,81.878059 448.136505,81.713326 448.896118,86.221375 
	C449.085510,87.345284 452.265533,88.827194 453.828003,88.583931 
	C455.068634,88.390778 456.704895,85.820053 456.714478,84.295853 
	C456.721313,83.204895 454.418121,81.326965 452.986938,81.159927 
	C449.988831,80.810028 448.932281,79.561081 448.963440,76.706734 
	C448.999664,73.390060 447.069580,71.965294 443.872162,71.997719 
	C441.711700,72.019630 439.521027,72.196114 437.401978,71.894882 
	C436.279480,71.735306 434.871368,70.953392 434.301666,70.019615 
	C432.428314,66.948975 430.879242,63.680519 429.221924,60.519184 
	C429.852753,59.163002 430.711365,57.317062 431.570007,55.471130 
	C429.587585,54.980759 427.625641,54.191898 425.618958,54.054131 
	C418.689331,53.578369 411.717682,53.573093 404.823517,52.823315 
	C403.098419,52.635708 401.603607,50.330853 400.471405,48.999191 
	C413.294891,49.001362 425.649872,49.003426 438.004456,49.401543 
	C437.716827,55.033600 442.062744,54.045017 444.962524,55.545692 
	C447.840057,57.034870 449.677460,60.479725 452.111847,62.926830 
	C452.577820,63.395237 453.886841,62.952694 454.478821,63.382420 
	C455.895813,64.411049 457.998169,65.550598 458.245789,66.928886 
	C458.882233,70.471710 461.270416,71.467842 464.046021,71.785858 
	C466.208649,72.033653 470.173248,71.930786 470.372192,71.188805 
	C471.102448,68.465317 472.326569,65.316277 468.675232,62.814434 
	C466.847229,61.561916 465.856201,58.505726 465.449127,56.102272 
	C465.320435,55.342422 468.323334,54.073082 469.869385,53.002724 
	C471.354004,51.974960 472.807922,50.902889 474.565186,49.642384 
	C474.876434,51.849979 475.202698,54.164227 475.528992,56.478470 
	C475.824677,56.415512 476.120331,56.352554 476.416016,56.289597 
	C476.939697,53.575916 477.463348,50.862236 478.232635,48.142094 
	C478.478241,48.135632 478.964600,48.205311 478.975647,48.660965 
	C478.986694,78.171791 478.986694,107.226959 478.986694,136.282135 
	C478.439026,136.295700 477.891357,136.309280 477.343689,136.322861 
	C477.228729,134.948166 477.025940,133.574203 477.014496,132.198654 
	C476.973053,127.208778 477.081848,122.215866 476.937134,117.229813 
	C476.898315,115.892624 476.409393,113.595589 475.701752,113.416100 
	C472.314484,112.556946 473.072662,110.071373 473.006836,107.861526 
	C472.952362,106.033241 473.643433,103.790337 472.820343,102.468071 
	C471.542175,100.414856 469.373138,98.818359 467.314606,97.422104 
	C466.839172,97.099632 464.485504,98.249687 464.382050,98.932205 
	C464.129242,100.600212 464.376617,103.780037 464.967712,103.912102 
	C469.576172,104.941856 468.931671,108.354584 469.174225,111.581764 
	C469.252350,112.620972 469.927551,114.090118 470.760925,114.513374 
	C473.923309,116.119469 473.161804,118.290337 471.900604,120.267838 
	C469.705963,121.288696 467.131226,122.267578 466.331512,124.045067 
	C464.249603,128.672562 462.805481,133.610596 461.420624,138.513367 
	C461.018524,139.936951 461.275787,141.851959 461.927582,143.206360 
	C463.414124,146.295319 465.331909,149.176758 467.074463,152.142517 
	C464.926849,153.696259 462.779236,155.249985 460.083405,156.623230 
	C459.083862,157.042252 458.632538,157.641754 458.181213,158.241241 
	C458.181213,158.241241 458.083069,158.107483 457.781677,158.092514 
	C456.258453,157.847076 455.036621,157.616608 454.172516,157.453613 
	C453.060577,159.523392 452.076111,161.355804 451.091675,163.188232 
	C450.662598,163.790970 450.233521,164.393707 449.120239,165.021790 
	C445.254913,164.681000 444.201233,166.484421 444.120056,169.279510 
	C444.004395,169.630737 443.888763,169.981949 443.363098,170.149170 
	C441.789154,169.714417 440.625153,169.463669 439.465942,169.213943 
	C441.028809,159.975052 438.629303,156.416992 430.597626,155.956665 
	C430.503387,153.273956 430.409149,150.591232 430.737488,147.452820 
	C434.348236,144.887283 431.948639,143.494354 430.516052,141.977371 
	C430.449707,141.540665 430.383362,141.103943 430.691650,140.272293 
	C430.869812,138.910721 430.673401,137.944107 430.476990,136.977478 
	C430.398071,126.609550 430.319153,116.241615 430.438599,105.317696 
	C430.771149,104.460739 430.690704,104.222733 430.395630,104.047676 
M475.267914,65.157845 
	C474.831573,66.813858 474.395264,68.469872 473.958954,70.125885 
	C474.639709,70.207413 475.320465,70.288933 476.001221,70.370461 
	C476.001221,68.580589 476.001221,66.790718 476.529755,64.525322 
	C476.529755,63.183167 476.529755,61.841007 476.529755,60.498852 
	C476.032501,60.566303 475.535248,60.633759 475.037994,60.701210 
	C475.357880,62.133614 475.677734,63.566017 475.267914,65.157845 
M473.012146,94.721069 
	C473.293427,94.986267 473.574738,95.251465 473.856049,95.516655 
	C473.889008,95.361099 473.950134,95.205635 473.950653,95.049965 
	C473.957153,93.088013 473.954926,91.126030 473.954926,89.164055 
	C473.637756,89.172531 473.320587,89.181007 473.003418,89.189484 
	C473.003418,90.788124 473.003418,92.386765 473.012146,94.721069 
M432.415344,96.483551 
	C432.415344,96.483551 432.521210,96.421722 432.415344,96.483551 
z"/>
<path fill="#CE7FF2" opacity="1.000000" stroke="none" 
	d="
M39.447033,145.996033 
	C39.373745,140.636612 39.300453,135.277176 39.756374,129.458832 
	C44.741287,128.659744 49.224678,128.507584 53.634808,127.858009 
	C54.862522,127.677185 56.036819,126.151718 56.930496,125.005272 
	C57.607544,124.136734 57.632179,122.784584 58.234863,121.829132 
	C62.637215,114.850067 66.462166,107.669380 64.964035,99.019836 
	C63.754433,92.036140 68.915054,87.141571 70.483002,81.080673 
	C71.112999,78.645439 72.475929,76.373817 72.915298,73.922012 
	C73.437439,71.008240 73.673492,67.940483 73.337364,65.019569 
	C73.172806,63.589684 71.539688,61.321255 70.386192,61.200535 
	C66.842834,60.829708 64.571579,59.461166 63.019867,56.220409 
	C61.439659,52.920155 59.089073,51.215313 54.941311,52.711437 
	C52.432381,53.616425 49.309116,53.549629 48.250881,49.003605 
	C59.118000,49.003605 69.560028,49.003605 80.002609,49.416248 
	C80.453995,52.066360 80.904816,54.303825 81.139420,55.468212 
	C83.960884,57.207962 86.959801,58.000118 87.667053,59.729485 
	C88.866913,62.663395 88.944931,66.201263 88.815498,69.458313 
	C88.767387,70.669106 86.838295,72.770912 85.719635,72.802734 
	C81.361610,72.926704 81.126976,75.605705 80.956047,78.838135 
	C80.802299,81.745750 80.501877,84.687660 79.839966,87.514656 
	C79.162933,90.406181 77.967758,93.176384 76.623627,96.046219 
	C75.168449,97.579231 73.057632,99.149063 73.169960,100.539268 
	C74.235863,113.731583 65.697189,125.529076 67.801514,138.841858 
	C68.250595,141.682892 67.497803,144.737946 68.086472,147.528198 
	C69.606407,154.732651 65.306557,160.788452 64.598190,167.539200 
	C64.053879,172.726547 62.889141,177.848801 62.000168,183.333328 
	C61.999912,184.111099 61.999802,184.555557 61.604988,185.094452 
	C61.062405,192.613708 60.641834,200.047134 60.876545,207.459824 
	C61.002350,211.433044 62.705437,215.348404 62.901348,219.329025 
	C63.251621,226.446182 62.545082,233.629898 63.120094,240.717636 
	C63.775486,248.796219 59.010975,253.513809 53.993977,258.440338 
	C52.389820,260.015564 51.316597,262.131470 49.596336,263.999969 
	C45.962421,263.995514 42.732613,263.991058 39.502808,263.986633 
	C39.402641,247.566467 39.262039,231.146439 39.214249,214.726120 
	C39.170792,199.791321 39.228191,184.856247 39.720970,169.443436 
	C43.794094,168.599670 48.025589,165.373474 50.053661,171.605881 
	C50.586201,173.242416 52.374180,175.514618 53.735947,175.624023 
	C56.755253,175.866623 57.156952,173.246902 57.013210,170.681808 
	C56.632786,163.893051 56.621265,157.061890 55.760571,150.337494 
	C55.552788,148.714172 52.784775,146.526642 50.912556,146.196808 
	C47.194313,145.541809 43.280201,145.998657 39.447033,145.996033 
M79.716187,59.473362 
	C79.605240,60.043182 79.494301,60.612999 79.383362,61.182819 
	C79.788841,61.188118 80.194321,61.193413 80.599800,61.198711 
	C80.503220,60.626118 80.406647,60.053528 79.716187,59.473362 
z"/>
<path fill="#C977F6" opacity="1.000000" stroke="none" 
	d="
M39.486538,364.997681 
	C39.408455,362.002075 39.330368,359.006439 39.490150,355.563934 
	C39.728024,355.117035 40.105541,355.004669 40.304886,354.847473 
	C40.367447,354.137451 40.230663,353.584656 40.063942,352.619293 
	C39.789173,350.123016 39.544338,348.039307 39.299503,345.955566 
	C39.271500,343.957458 39.243496,341.959320 39.468529,339.537842 
	C39.721565,339.114502 40.133854,339.028656 40.510685,338.965576 
	C45.401604,337.702423 50.820107,337.745819 51.347317,331.100189 
	C51.378120,330.711914 52.815067,329.988312 53.303276,330.178101 
	C54.259697,330.549774 55.265869,331.304199 55.781235,332.177673 
	C56.515217,333.421692 56.573101,335.100372 57.405457,336.238037 
	C57.967781,337.006653 59.382549,337.505463 60.384727,337.458405 
	C60.937515,337.432434 61.901306,336.008759 61.866486,335.252655 
	C61.624924,330.007080 61.600250,324.688538 60.615501,319.564545 
	C60.058491,316.666229 60.040276,314.579437 62.649029,313.254608 
	C65.722641,311.693665 66.241196,309.203430 66.007988,306.186951 
	C65.651863,301.580444 64.133224,296.646332 65.257217,292.423279 
	C68.306984,280.964874 66.893433,269.485443 67.221848,257.711243 
	C71.303009,255.527542 69.635422,251.955414 70.394035,248.905991 
	C71.163322,248.308701 71.798103,247.842163 71.875343,247.296692 
	C73.301979,237.221573 74.806793,227.153580 75.962456,217.046051 
	C76.403473,213.188889 75.908989,209.233612 76.020645,205.328186 
	C76.290665,195.883850 76.666512,186.442535 77.167191,176.617157 
	C77.556557,171.959641 77.616661,167.668625 78.047089,163.415070 
	C78.455269,159.381271 79.251411,155.386719 79.876945,151.374908 
	C80.347305,151.447723 80.817673,151.520523 81.288040,151.593338 
	C81.896408,153.859268 81.798500,157.297760 83.246414,158.169891 
	C87.480354,160.720169 86.830673,164.365265 87.092789,168.132156 
	C87.231277,170.122345 88.325974,172.046005 88.988960,173.999695 
	C88.759964,178.412933 88.353683,182.826508 88.362503,187.239273 
	C88.368675,190.329300 89.216583,193.417892 89.220100,196.507660 
	C89.267662,238.263077 89.233025,280.018585 88.674744,322.028931 
	C80.339363,320.546509 77.247528,329.716461 71.548126,329.597839 
	C69.573021,333.709991 67.851357,336.981628 66.431259,340.379303 
	C65.689735,342.153473 64.712547,344.361450 65.167877,346.006439 
	C66.704590,351.558105 63.964630,351.135681 60.586891,349.756073 
	C59.702354,352.326324 58.918972,354.602692 58.045860,357.139771 
	C63.215786,359.141815 61.508736,363.263885 60.767620,366.783478 
	C59.995014,370.452576 56.705681,370.048615 53.874340,369.996704 
	C51.404282,369.951416 48.674122,370.099457 49.106941,373.415497 
	C49.853851,379.137909 46.029839,381.047363 42.000587,382.596497 
	C41.522266,380.285522 43.423710,377.231171 39.491684,376.988586 
	C39.405048,374.615234 39.318413,372.241913 39.633896,369.342651 
	C39.852852,367.543701 39.669697,366.270691 39.486538,364.997681 
M67.737816,315.294556 
	C68.136131,316.790100 68.097954,319.211273 69.000763,319.637024 
	C77.382935,323.589935 81.099098,321.115723 81.000198,311.972229 
	C80.996613,311.640320 80.962944,311.303802 81.004066,310.977081 
	C81.385269,307.948273 79.896400,307.422729 77.076820,306.824310 
	C71.921844,305.730286 69.536728,306.858337 69.851646,312.396149 
	C69.895905,313.174347 68.896080,314.011963 67.737816,315.294556 
z"/>
<path fill="#C774F4" opacity="1.000000" stroke="none" 
	d="
M42.000916,383.000000 
	C46.029839,381.047363 49.853851,379.137909 49.106941,373.415497 
	C48.674122,370.099457 51.404282,369.951416 53.874340,369.996704 
	C56.705681,370.048615 59.995014,370.452576 60.767620,366.783478 
	C61.508736,363.263885 63.215786,359.141815 58.045860,357.139771 
	C58.918972,354.602692 59.702354,352.326324 60.586891,349.756073 
	C63.964630,351.135681 66.704590,351.558105 65.167877,346.006439 
	C64.712547,344.361450 65.689735,342.153473 66.431259,340.379303 
	C67.851357,336.981628 69.573021,333.709991 71.548126,329.597839 
	C77.247528,329.716461 80.339363,320.546509 88.558167,322.461273 
	C89.049347,337.451996 89.113098,352.265259 88.687149,367.443481 
	C87.799179,366.804504 87.189499,365.831268 87.038361,364.791382 
	C86.288582,359.632568 85.901924,354.405884 84.844330,349.315918 
	C84.516655,347.738861 82.516479,345.405029 81.221237,345.364563 
	C78.575752,345.281952 76.839394,347.134644 76.957603,350.306946 
	C77.130974,354.959473 77.185936,359.634186 76.914032,364.277344 
	C76.794434,366.319489 76.269547,368.754852 75.010918,370.227081 
	C72.343590,373.347076 68.580330,375.756226 71.807907,380.651306 
	C72.095276,381.087158 71.281937,382.166931 71.148674,382.975494 
	C70.403610,387.496216 69.584503,392.010040 69.026810,396.555206 
	C67.982468,405.066681 67.156158,413.604797 66.127312,422.118317 
	C65.573959,426.697174 64.268700,431.290466 69.007690,434.747803 
	C69.744293,435.285217 69.889290,437.221893 69.663071,438.386230 
	C68.802666,442.814728 67.677818,447.191864 66.600731,451.807068 
	C68.902199,451.947388 70.712234,452.057739 72.522263,452.168091 
	C61.799931,460.742126 51.077602,469.316162 39.323898,478.714935 
	C39.323898,446.616974 39.323898,415.755249 39.791489,384.431610 
	C40.839691,383.646454 41.420300,383.323212 42.000916,383.000000 
z"/>
<path fill="#CB7CF4" opacity="1.000000" stroke="none" 
	d="
M89.087769,173.539917 
	C88.325974,172.046005 87.231277,170.122345 87.092789,168.132156 
	C86.830673,164.365265 87.480354,160.720169 83.246414,158.169891 
	C81.798500,157.297760 81.896408,153.859268 81.288040,151.593338 
	C80.817673,151.520523 80.347305,151.447723 79.876945,151.374908 
	C79.251411,155.386719 78.455269,159.381271 78.047089,163.415070 
	C77.616661,167.668625 77.556557,171.959641 76.798927,176.658646 
	C71.053696,178.895569 68.047974,182.963715 68.008018,188.368530 
	C67.971161,193.354614 67.820839,198.350830 68.087852,203.322861 
	C68.197151,205.358063 68.733597,207.835892 70.024361,209.240768 
	C72.381943,211.806824 71.349068,213.606644 70.319008,216.296204 
	C66.245911,226.931305 67.238144,237.828064 69.625008,248.683548 
	C69.652893,248.810379 69.870796,248.895447 70.000000,249.000000 
	C69.635422,251.955414 71.303009,255.527542 66.897629,257.889648 
	C65.900749,260.237885 65.450218,262.118927 64.607651,263.992462 
	C62.526043,263.171906 60.836472,262.358856 59.146900,261.545837 
	C60.258251,260.354156 61.470451,259.239197 62.452312,257.948944 
	C63.416405,256.682068 64.692413,255.307251 64.878845,253.857315 
	C65.486855,249.128525 65.751816,244.348190 65.979698,239.579605 
	C66.381424,231.173584 66.825531,222.762741 66.883163,214.351379 
	C66.899918,211.905334 65.662506,209.450699 65.000000,206.531845 
	C65.333336,198.042465 65.666664,190.021225 66.000008,181.560333 
	C66.333344,177.338318 66.947609,173.553940 66.920677,169.774139 
	C66.893951,166.023361 67.199104,162.833130 71.275154,161.240250 
	C72.012932,160.951935 72.990082,159.666214 72.868011,159.030930 
	C71.244553,150.581970 79.816437,142.261826 73.194199,133.730042 
	C72.725372,133.126022 73.140564,131.795898 73.223450,130.810028 
	C73.804031,123.904068 74.310226,116.989883 75.032906,110.098526 
	C75.527519,105.382042 76.332932,100.698158 76.999397,95.999695 
	C77.967758,93.176384 79.162933,90.406181 79.839966,87.514656 
	C80.501877,84.687660 80.802299,81.745750 80.956047,78.838135 
	C81.126976,75.605705 81.361610,72.926704 85.719635,72.802734 
	C86.838295,72.770912 88.767387,70.669106 88.815498,69.458313 
	C88.944931,66.201263 88.866913,62.663395 87.667053,59.729485 
	C86.959801,58.000118 83.960884,57.207962 81.139420,55.468212 
	C80.904816,54.303825 80.453995,52.066360 80.471039,49.415611 
	C91.960693,49.003719 102.982468,49.005108 114.001465,49.418255 
	C112.696098,59.002422 112.697731,59.102665 122.149025,58.948761 
	C125.299255,58.897465 125.918495,60.195522 126.081131,63.064247 
	C126.516182,70.738457 127.194183,78.409653 128.144974,86.036003 
	C128.371536,87.853249 130.042130,89.490463 131.129578,91.348976 
	C130.838943,92.284149 130.418716,93.636353 129.529938,94.991806 
	C117.314262,94.998024 105.566475,94.941559 93.820824,95.074623 
	C92.246330,95.092468 90.682678,96.067490 89.113998,96.599266 
	C89.138199,122.092896 89.162392,147.586533 89.087769,173.539917 
M79.968597,138.715256 
	C78.109428,141.975632 79.006569,144.822083 82.416832,147.689651 
	C83.077156,144.399353 83.737473,141.109070 84.590492,136.858582 
	C82.373070,137.628021 81.481308,137.937454 79.968597,138.715256 
z"/>
<path fill="#D183F3" opacity="1.000000" stroke="none" 
	d="
M114.004250,49.006493 
	C102.982468,49.005108 91.960693,49.003719 80.470482,49.002968 
	C69.560028,49.003605 59.118000,49.003605 48.250881,49.003605 
	C49.309116,53.549629 52.432381,53.616425 54.941311,52.711437 
	C59.089073,51.215313 61.439659,52.920155 63.019867,56.220409 
	C64.571579,59.461166 66.842834,60.829708 70.386192,61.200535 
	C71.539688,61.321255 73.172806,63.589684 73.337364,65.019569 
	C73.673492,67.940483 73.437439,71.008240 72.915298,73.922012 
	C72.475929,76.373817 71.112999,78.645439 70.483002,81.080673 
	C68.915054,87.141571 63.754433,92.036140 64.964035,99.019836 
	C66.462166,107.669380 62.637215,114.850067 58.234863,121.829132 
	C57.632179,122.784584 57.607544,124.136734 56.930496,125.005272 
	C56.036819,126.151718 54.862522,127.677185 53.634808,127.858009 
	C49.224678,128.507584 44.741287,128.659744 39.856831,129.001678 
	C39.366291,108.022987 39.299618,87.042572 39.245964,66.062119 
	C39.231480,60.398911 39.256466,54.735603 39.586254,48.605293 
	C40.292698,47.852097 40.676216,47.565941 41.059734,47.279785 
	C46.382595,47.251820 51.705452,47.223858 57.736221,47.432659 
	C59.647175,47.532814 60.850220,47.396198 62.053268,47.259590 
	C65.716972,47.243664 69.380684,47.227737 73.844604,47.474861 
	C97.505661,47.811386 120.366501,47.890034 143.227402,47.930317 
	C143.835831,47.931389 144.444962,47.516232 145.053772,47.295177 
	C149.396271,47.273132 153.738770,47.251087 158.533936,47.584953 
	C158.989822,48.292343 158.993057,48.643818 158.536072,48.996078 
	C154.384079,48.998421 150.692276,48.999981 146.531799,49.000053 
	C135.376816,49.001209 124.690536,49.003853 114.004250,49.006493 
z"/>
<path fill="#C26DF5" opacity="1.000000" stroke="none" 
	d="
M72.822067,452.060547 
	C70.712234,452.057739 68.902199,451.947388 66.600731,451.807068 
	C67.677818,447.191864 68.802666,442.814728 69.663071,438.386230 
	C69.889290,437.221893 69.744293,435.285217 69.007690,434.747803 
	C64.268700,431.290466 65.573959,426.697174 66.127312,422.118317 
	C67.156158,413.604797 67.982468,405.066681 69.026810,396.555206 
	C69.584503,392.010040 70.403610,387.496216 71.148674,382.975494 
	C71.281937,382.166931 72.095276,381.087158 71.807907,380.651306 
	C68.580330,375.756226 72.343590,373.347076 75.010918,370.227081 
	C76.269547,368.754852 76.794434,366.319489 76.914032,364.277344 
	C77.185936,359.634186 77.130974,354.959473 76.957603,350.306946 
	C76.839394,347.134644 78.575752,345.281952 81.221237,345.364563 
	C82.516479,345.405029 84.516655,347.738861 84.844330,349.315918 
	C85.901924,354.405884 86.288582,359.632568 87.038361,364.791382 
	C87.189499,365.831268 87.799179,366.804504 88.590027,367.903442 
	C89.036118,370.974243 89.089622,373.950104 89.088669,377.796661 
	C89.018181,389.713379 89.029358,400.759552 88.949387,411.805084 
	C88.940102,413.088379 88.433456,414.369690 88.144287,415.648956 
	C87.433594,418.792999 86.693039,421.930420 86.006401,425.079681 
	C85.352074,428.080780 84.678566,431.080963 84.153915,434.105896 
	C83.850632,435.854401 83.824959,437.651062 83.665039,439.535736 
	C86.509674,439.001923 88.371017,438.652618 90.232361,438.303314 
	C84.528862,442.853210 78.825363,447.403107 72.822067,452.060547 
z"/>
<path fill="#CB7BF3" opacity="1.000000" stroke="none" 
	d="
M64.999695,264.000000 
	C65.450218,262.118927 65.900749,260.237885 66.675484,258.178406 
	C66.893433,269.485443 68.306984,280.964874 65.257217,292.423279 
	C64.133224,296.646332 65.651863,301.580444 66.007988,306.186951 
	C66.241196,309.203430 65.722641,311.693665 62.649029,313.254608 
	C60.040276,314.579437 60.058491,316.666229 60.615501,319.564545 
	C61.600250,324.688538 61.624924,330.007080 61.866486,335.252655 
	C61.901306,336.008759 60.937515,337.432434 60.384727,337.458405 
	C59.382549,337.505463 57.967781,337.006653 57.405457,336.238037 
	C56.573101,335.100372 56.515217,333.421692 55.781235,332.177673 
	C55.265869,331.304199 54.259697,330.549774 53.303276,330.178101 
	C52.815067,329.988312 51.378120,330.711914 51.347317,331.100189 
	C50.820107,337.745819 45.401604,337.702423 40.456039,338.682159 
	C39.790646,337.957733 39.556732,337.453674 39.322819,336.949615 
	C39.295422,315.936890 39.268028,294.924133 39.642303,273.361053 
	C39.858032,271.540680 39.672089,270.270691 39.486149,269.000671 
	C39.420547,267.601868 39.354950,266.203033 39.396080,264.395416 
	C42.732613,263.991058 45.962421,263.995514 49.998909,264.000763 
	C55.363640,263.984131 57.596863,266.095947 56.998394,270.782013 
	C56.461346,274.987244 56.121765,279.232178 55.304890,283.382843 
	C54.548061,287.228333 56.495792,289.604980 60.376217,288.931763 
	C63.751141,288.346283 65.013039,286.123535 65.002960,282.898315 
	C64.983276,276.598938 64.998772,270.299438 64.999695,264.000000 
z"/>
<path fill="#B160F5" opacity="1.000000" stroke="none" 
	d="
M146.008118,395.025787 
	C145.630768,395.403870 145.253403,395.781921 144.487762,395.906952 
	C143.660645,395.287201 143.221817,394.920502 142.782974,394.553833 
	C142.619232,394.786652 142.455490,395.019470 142.291748,395.252289 
	C142.946915,395.612274 143.602081,395.972229 144.257233,396.332184 
	C135.606277,403.184570 126.961761,410.045166 118.301186,416.885376 
	C114.857147,419.605530 111.377563,422.280640 107.229309,425.037415 
	C106.108528,425.539215 105.672615,425.979858 105.236710,426.420532 
	C105.236717,426.420532 105.277138,426.236816 104.988495,426.122009 
	C104.091202,425.776123 103.493950,425.388672 102.871758,425.343323 
	C101.014160,425.207977 99.146797,425.206757 97.283234,425.153137 
	C98.519005,423.612061 99.457230,421.315369 101.052475,420.687195 
	C104.374481,419.379089 105.030251,417.172241 105.062424,414.081421 
	C105.078842,412.503876 105.881508,410.950836 106.092537,409.355469 
	C106.483223,406.401794 107.305832,403.322296 106.823891,400.486298 
	C106.314903,397.491241 105.663216,395.432709 108.853897,393.301575 
	C112.635201,390.776001 112.209854,385.237152 108.544395,382.706970 
	C110.059387,382.126251 111.531075,381.562164 113.399750,380.998291 
	C115.581062,380.827454 117.365395,380.656311 119.487503,380.452820 
	C119.487503,381.473907 119.487503,382.486115 119.487503,382.593048 
	C123.440636,383.326141 126.895042,383.937653 130.336884,384.613159 
	C133.896133,385.311737 137.001053,385.734680 137.198456,380.441589 
	C137.242706,379.254913 139.717010,377.118530 140.827744,377.265808 
	C142.339035,377.466187 144.670258,379.337891 144.800552,380.673340 
	C145.250015,385.279419 149.539291,389.680756 145.850021,394.568970 
	C145.795914,394.640625 145.950790,394.870026 146.008118,395.025787 
z"/>
<path fill="#A758F5" opacity="1.000000" stroke="none" 
	d="
M147.970963,351.988281 
	C155.836121,345.618713 163.682251,339.225250 171.594818,332.915161 
	C172.420349,332.256744 173.637863,331.752686 174.675934,331.748322 
	C191.581421,331.676910 208.487305,331.697723 226.584549,331.697723 
	C224.829041,333.685760 223.826462,334.821136 222.467194,335.690887 
	C222.879578,332.043304 220.314575,333.044739 218.787750,333.035004 
	C209.001572,332.972412 199.199448,332.684113 189.435791,333.156525 
	C185.540649,333.345001 181.708786,335.217041 177.907471,336.498627 
	C177.427032,336.660645 176.872025,338.090454 177.098801,338.600891 
	C178.032166,340.701813 178.770126,343.397858 180.474426,344.537964 
	C183.639694,346.655396 183.231964,349.040863 182.438416,351.865906 
	C181.612350,354.806580 180.808105,357.753387 179.998779,360.698761 
	C179.748917,361.608063 179.782516,362.756805 179.225739,363.392548 
	C176.645142,366.339050 176.587143,366.288239 180.410477,368.585297 
	C175.246887,372.637665 170.083282,376.690033 164.335159,380.945435 
	C163.509521,381.456787 163.268402,381.765106 163.027283,382.073395 
	C163.027283,382.073395 163.008881,382.005066 162.648773,382.012482 
	C160.411957,382.694183 158.535248,383.368439 156.379700,384.142914 
	C155.894547,381.114349 154.995728,378.287720 159.450745,376.463104 
	C162.770706,375.103455 162.831055,370.376007 159.810684,369.605072 
	C155.334213,368.462433 153.805313,365.693695 153.271973,361.613525 
	C153.116013,360.420410 152.299652,359.313660 151.842026,358.292358 
	C149.375687,358.825134 147.379639,359.256317 145.383591,359.687531 
	C145.234940,359.237549 145.086273,358.787598 144.937607,358.337616 
	C146.053619,357.603607 147.228912,356.944580 148.272568,356.119080 
	C150.130203,354.649872 150.380508,353.195862 147.970963,351.988281 
z"/>
<path fill="#B766F4" opacity="1.000000" stroke="none" 
	d="
M113.002747,380.998047 
	C111.531075,381.562164 110.059387,382.126251 108.544395,382.706970 
	C112.209854,385.237152 112.635201,390.776001 108.853897,393.301575 
	C105.663216,395.432709 106.314903,397.491241 106.823891,400.486298 
	C107.305832,403.322296 106.483223,406.401794 106.092537,409.355469 
	C105.881508,410.950836 105.078842,412.503876 105.062424,414.081421 
	C105.030251,417.172241 104.374481,419.379089 101.052475,420.687195 
	C99.457230,421.315369 98.519005,423.612061 97.283234,425.153137 
	C99.146797,425.206757 101.014160,425.207977 102.871758,425.343323 
	C103.493950,425.388672 104.091202,425.776123 105.006035,426.214417 
	C101.807045,429.307159 98.301888,432.192688 94.301529,434.842957 
	C92.547005,434.298584 91.287689,433.989502 90.028366,433.680389 
	C90.094437,435.215546 90.160507,436.750732 90.226578,438.285889 
	C90.226570,438.285889 90.184372,438.290527 90.208359,438.296936 
	C88.371017,438.652618 86.509674,439.001923 83.665039,439.535736 
	C83.824959,437.651062 83.850632,435.854401 84.153915,434.105896 
	C84.678566,431.080963 85.352074,428.080780 86.006401,425.079681 
	C86.693039,421.930420 87.433594,418.792999 88.144287,415.648956 
	C88.433456,414.369690 88.940102,413.088379 88.949387,411.805084 
	C89.029358,400.759552 89.018181,389.713379 89.055893,378.238159 
	C96.748375,377.834564 104.419159,377.860168 112.691757,378.187286 
	C113.196632,379.325195 113.099686,380.161621 113.002747,380.998047 
M95.580788,384.516052 
	C95.580788,384.516052 95.477676,384.575775 95.580788,384.516052 
z"/>
<path fill="#AD5CF2" opacity="1.000000" stroke="none" 
	d="
M113.399734,380.998291 
	C113.099686,380.161621 113.196632,379.325195 113.154388,378.274902 
	C114.767342,377.201508 116.738304,376.619324 118.236099,375.437469 
	C127.986168,367.744293 137.633514,359.920929 147.642700,352.064209 
	C150.380508,353.195862 150.130203,354.649872 148.272568,356.119080 
	C147.228912,356.944580 146.053619,357.603607 144.937607,358.337616 
	C145.086273,358.787598 145.234940,359.237549 145.383591,359.687531 
	C147.379639,359.256317 149.375687,358.825134 151.842026,358.292358 
	C152.299652,359.313660 153.116013,360.420410 153.271973,361.613525 
	C153.805313,365.693695 155.334213,368.462433 159.810684,369.605072 
	C162.831055,370.376007 162.770706,375.103455 159.450745,376.463104 
	C154.995728,378.287720 155.894547,381.114349 156.379700,384.142914 
	C158.535248,383.368439 160.411957,382.694183 162.678741,382.031281 
	C157.600601,386.308380 152.132355,390.574097 146.336121,394.932800 
	C145.950790,394.870026 145.795914,394.640625 145.850021,394.568970 
	C149.539291,389.680756 145.250015,385.279419 144.800552,380.673340 
	C144.670258,379.337891 142.339035,377.466187 140.827744,377.265808 
	C139.717010,377.118530 137.242706,379.254913 137.198456,380.441589 
	C137.001053,385.734680 133.896133,385.311737 130.336884,384.613159 
	C126.895042,383.937653 123.440636,383.326141 119.487503,382.593048 
	C119.487503,382.486115 119.487503,381.473907 119.487503,380.452820 
	C117.365395,380.656311 115.581062,380.827454 113.399734,380.998291 
M152.416855,386.483612 
	C152.416855,386.483612 152.521988,386.422272 152.416855,386.483612 
z"/>
<path fill="#A352F9" opacity="1.000000" stroke="none" 
	d="
M180.396515,368.571320 
	C176.587143,366.288239 176.645142,366.339050 179.225739,363.392548 
	C179.782516,362.756805 179.748917,361.608063 179.998779,360.698761 
	C180.808105,357.753387 181.612350,354.806580 182.438416,351.865906 
	C183.231964,349.040863 183.639694,346.655396 180.474426,344.537964 
	C178.770126,343.397858 178.032166,340.701813 177.098801,338.600891 
	C176.872025,338.090454 177.427032,336.660645 177.907471,336.498627 
	C181.708786,335.217041 185.540649,333.345001 189.435791,333.156525 
	C199.199448,332.684113 209.001572,332.972412 218.787750,333.035004 
	C220.314575,333.044739 222.879578,332.043304 222.128494,335.786804 
	C222.146469,336.148346 222.099518,336.113007 221.765823,336.106018 
	C219.966583,337.418365 218.501038,338.737671 217.035477,340.056976 
	C217.035477,340.056976 217.001541,340.001221 216.657715,340.011841 
	C214.884766,341.371338 213.455643,342.720154 212.026520,344.069000 
	C211.698166,344.403442 211.369843,344.737854 210.459320,345.167908 
	C209.615021,345.618988 209.352921,345.974426 209.090805,346.329834 
	C206.439682,348.549164 203.788589,350.768463 200.454865,353.054321 
	C199.179901,353.744354 198.587555,354.367798 197.995209,354.991241 
	C197.995209,354.991241 198.000000,355.000000 197.682343,355.031189 
	C196.955124,355.475555 196.545578,355.888702 196.136017,356.301849 
	C196.136032,356.301849 196.105804,356.135559 195.911163,356.205292 
	C195.499802,356.571228 195.283081,356.867432 195.066376,357.163666 
	C195.066376,357.163666 195.066559,357.074188 194.733643,357.090271 
	C191.457291,357.828430 188.526718,358.565491 188.245392,362.389313 
	C188.245392,362.389313 188.233719,362.248505 187.918030,362.212646 
	C185.767303,363.832092 183.932297,365.487427 182.097275,367.142731 
	C182.097275,367.142731 182.022812,367.049774 181.736908,367.077423 
	C181.098984,367.577850 180.746994,368.050598 180.395004,368.523376 
	C180.395004,368.523376 180.382568,368.557343 180.396515,368.571320 
z"/>
<path fill="#9C51EE" opacity="1.000000" stroke="none" 
	d="
M467.401062,152.034882 
	C465.331909,149.176758 463.414124,146.295319 461.927582,143.206360 
	C461.275787,141.851959 461.018524,139.936951 461.420624,138.513367 
	C462.805481,133.610596 464.249603,128.672562 466.331512,124.045067 
	C467.131226,122.267578 469.705963,121.288696 471.900604,120.267838 
	C473.161804,118.290337 473.923309,116.119469 470.760925,114.513374 
	C469.927551,114.090118 469.252350,112.620972 469.174225,111.581764 
	C468.931671,108.354584 469.576172,104.941856 464.967712,103.912102 
	C464.376617,103.780037 464.129242,100.600212 464.382050,98.932205 
	C464.485504,98.249687 466.839172,97.099632 467.314606,97.422104 
	C469.373138,98.818359 471.542175,100.414856 472.820343,102.468071 
	C473.643433,103.790337 472.952362,106.033241 473.006836,107.861526 
	C473.072662,110.071373 472.314484,112.556946 475.701752,113.416100 
	C476.409393,113.595589 476.898315,115.892624 476.937134,117.229813 
	C477.081848,122.215866 476.973053,127.208778 477.014496,132.198654 
	C477.025940,133.574203 477.228729,134.948166 477.343689,136.322861 
	C477.891357,136.309280 478.439026,136.295700 478.986694,136.282135 
	C478.986694,107.226959 478.986694,78.171791 479.221649,48.592720 
	C479.619720,48.021652 479.782806,47.974487 479.945862,47.927322 
	C480.060181,69.856224 480.176880,91.785103 480.287506,113.714027 
	C480.328644,121.866493 480.175323,130.025726 480.478241,138.168198 
	C480.598114,141.390305 479.709625,143.510513 477.042053,145.243149 
	C473.840668,147.322479 470.824188,149.686493 467.401062,152.034882 
z"/>
<path fill="#D183F3" opacity="1.000000" stroke="none" 
	d="
M39.348534,146.455475 
	C43.280201,145.998657 47.194313,145.541809 50.912556,146.196808 
	C52.784775,146.526642 55.552788,148.714172 55.760571,150.337494 
	C56.621265,157.061890 56.632786,163.893051 57.013210,170.681808 
	C57.156952,173.246902 56.755253,175.866623 53.735947,175.624023 
	C52.374180,175.514618 50.586201,173.242416 50.053661,171.605881 
	C48.025589,165.373474 43.794094,168.599670 39.816711,168.984436 
	C39.371754,161.640503 39.310894,154.277695 39.348534,146.455475 
z"/>
<path fill="#9C51EE" opacity="1.000000" stroke="none" 
	d="
M430.462463,156.410706 
	C438.629303,156.416992 441.028809,159.975052 439.465942,169.213943 
	C440.625153,169.463669 441.789154,169.714417 443.114014,170.281281 
	C439.305267,173.772659 435.335663,176.947952 430.327332,180.954117 
	C430.327332,172.201935 430.327332,164.533340 430.462463,156.410706 
z"/>
<path fill="#BA7AE9" opacity="1.000000" stroke="none" 
	d="
M401.955688,95.975609 
	C383.340942,96.077301 364.726257,96.251068 346.111450,96.265854 
	C306.039795,96.297684 265.968109,96.247726 225.441467,95.871948 
	C224.986526,95.512650 224.986053,95.014893 225.445709,95.008774 
	C229.271912,94.999252 232.638443,94.995850 236.473328,94.994598 
	C253.962341,94.996857 270.983002,94.996964 288.471924,94.998840 
	C299.293884,94.996582 309.647552,94.992538 320.469727,94.992966 
	C329.958679,94.994781 338.979156,94.992126 348.468262,94.994240 
	C363.956299,95.003059 378.975647,95.007111 394.438660,95.014473 
	C397.243286,95.020073 399.604218,95.022354 401.968536,95.262436 
	C401.971893,95.500237 401.955688,95.975609 401.955688,95.975609 
z"/>
<path fill="#C98AEA" opacity="1.000000" stroke="none" 
	d="
M224.986053,95.014893 
	C224.986053,95.014893 224.986526,95.512650 224.982391,95.761505 
	C199.822845,96.089828 174.667419,96.169510 149.511993,96.248734 
	C129.685211,96.311172 109.858429,96.373047 89.572830,96.517227 
	C90.682678,96.067490 92.246330,95.092468 93.820824,95.074623 
	C105.566475,94.941559 117.314262,94.998024 129.998734,94.995697 
	C140.957352,94.995796 150.978622,94.995262 161.249847,94.995956 
	C161.499802,94.997169 161.999664,94.991447 162.465790,94.994926 
	C167.622055,94.996719 172.312180,94.995033 177.251312,94.995148 
	C177.500320,94.996956 177.998337,94.992882 178.435913,94.996109 
	C180.915451,94.997391 182.957428,94.995445 185.448242,94.996689 
	C190.923370,94.681519 195.949631,94.363144 201.282532,94.328186 
	C209.388123,94.746025 217.187088,94.880455 224.986053,95.014893 
z"/>
<path fill="#CB7BF3" opacity="1.000000" stroke="none" 
	d="
M158.996292,48.995296 
	C158.993057,48.643818 158.989822,48.292343 158.989014,47.677254 
	C164.688965,47.346050 170.386520,47.278461 176.617310,47.399391 
	C177.454910,47.480965 177.759293,47.374020 178.063660,47.267075 
	C185.045731,47.251705 192.027802,47.236336 199.576965,47.418709 
	C200.451477,47.508583 200.758896,47.400723 201.066330,47.292862 
	C208.733780,47.285805 216.401245,47.278744 224.526199,47.622704 
	C224.987717,48.314651 224.991714,48.655582 224.567993,48.998009 
	C222.428207,49.003532 220.716125,49.007553 218.535370,49.007256 
	C212.045456,49.003777 206.024261,49.004623 199.534210,49.003597 
	C185.709000,48.999584 172.352646,48.997440 158.996292,48.995296 
z"/>
<path fill="#C477F2" opacity="1.000000" stroke="none" 
	d="
M224.995728,48.996513 
	C224.991714,48.655582 224.987717,48.314651 224.984436,47.718002 
	C229.997238,47.379910 235.009277,47.297535 240.587387,47.407509 
	C241.455353,47.494175 241.757278,47.388496 242.059204,47.282822 
	C247.716278,47.279266 253.373352,47.275711 259.659515,47.502132 
	C260.875854,47.609077 261.463074,47.486050 262.050323,47.363022 
	C262.470856,47.334816 262.891388,47.306610 263.728027,47.476891 
	C264.448120,47.572479 264.752045,47.469578 265.056000,47.366676 
	C267.396240,47.334682 269.736481,47.302689 272.618530,47.455780 
	C273.458069,47.528831 273.755737,47.416798 274.053436,47.304764 
	C278.710541,47.275993 283.367615,47.247223 288.581329,47.433517 
	C289.445221,47.555054 289.752472,47.461525 290.059753,47.367992 
	C290.498444,47.349442 290.937103,47.330891 291.685181,47.660965 
	C291.998077,48.338909 291.999512,48.668228 291.530273,48.997986 
	C278.375702,49.003147 265.689667,49.007881 252.534729,49.009048 
	C243.042496,49.002499 234.019104,48.999504 224.995728,48.996513 
z"/>
<path fill="#B268F5" opacity="1.000000" stroke="none" 
	d="
M345.027222,47.346214 
	C349.376099,47.327816 353.724976,47.309422 358.881836,47.562119 
	C370.785980,47.939270 381.882111,48.045334 392.985474,48.361603 
	C392.992706,48.571808 392.995117,48.994637 392.529297,48.995270 
	C387.376068,48.998177 382.688660,49.000450 377.532440,49.000854 
	C366.044128,49.002296 355.024567,49.005604 343.541260,49.006062 
	C339.050049,49.001335 335.022583,48.999458 330.992859,48.776268 
	C330.990631,48.554951 330.982941,48.112366 331.445740,48.073341 
	C336.281433,47.804951 340.654327,47.575581 345.027222,47.346214 
z"/>
<path fill="#AC5CF7" opacity="1.000000" stroke="none" 
	d="
M438.004883,49.005489 
	C425.649872,49.003426 413.294891,49.001362 400.472595,48.793938 
	C400.005280,48.588577 400.017212,48.178219 400.447510,48.139732 
	C403.587891,47.871319 406.297974,47.641396 409.008026,47.411472 
	C411.377808,47.371254 413.747620,47.331036 416.906067,47.565525 
	C433.431091,47.920002 449.167450,47.999775 464.613220,48.361927 
	C455.550049,48.764702 446.777466,48.885094 438.004883,49.005489 
z"/>
<path fill="#9162AF" opacity="1.000000" stroke="none" 
	d="
M144.595428,47.174107 
	C144.444962,47.516232 143.835831,47.931389 143.227402,47.930317 
	C120.366501,47.890034 97.505661,47.811386 74.300491,47.508644 
	C97.349808,47.203930 120.743446,47.128483 144.595428,47.174107 
z"/>
<path fill="#010009" opacity="1.000000" stroke="none" 
	d="
M255.853363,140.947189 
	C245.720825,141.383896 235.316360,141.481689 224.463898,141.437851 
	C224.333847,140.926788 224.654480,140.232498 224.969437,140.235046 
	C235.173767,140.318024 245.377579,140.468185 255.853363,140.947189 
z"/>
<path fill="#9162AF" opacity="1.000000" stroke="none" 
	d="
M464.903839,48.079548 
	C449.167450,47.999775 433.431091,47.920002 417.347168,47.621716 
	C437.810333,47.361988 458.621002,47.320774 479.688782,47.603439 
	C479.782806,47.974487 479.619720,48.021652 479.210602,48.137062 
	C478.964600,48.205311 478.478241,48.135632 477.773071,48.090794 
	C473.013245,48.057152 468.958527,48.068348 464.903839,48.079548 
z"/>
<path fill="#BD6AF7" opacity="1.000000" stroke="none" 
	d="
M330.982941,48.112366 
	C330.982941,48.112366 330.990631,48.554951 330.525513,48.776520 
	C324.374847,49.000538 318.689362,49.002995 312.535065,49.003685 
	C305.377106,49.000469 298.687958,48.999012 291.998779,48.997559 
	C291.999512,48.668228 291.998077,48.338909 291.999390,47.762722 
	C296.019287,47.436462 300.034363,47.357079 304.823608,47.524300 
	C308.078552,47.627552 310.559296,47.484188 313.040070,47.340824 
	C315.392883,47.320042 317.745667,47.299259 320.873108,47.542580 
	C324.759491,47.908573 327.871216,48.010468 330.982941,48.112366 
z"/>
<path fill="#9162AF" opacity="1.000000" stroke="none" 
	d="
M408.551392,47.297760 
	C406.297974,47.641396 403.587891,47.871319 400.097443,48.097496 
	C398.848267,48.112923 398.379486,48.132099 397.503723,48.111221 
	C395.723907,48.097908 394.351074,48.124649 392.978241,48.151394 
	C381.882111,48.045334 370.785980,47.939270 359.343140,47.613487 
	C375.362518,47.323860 391.728668,47.253952 408.551392,47.297760 
z"/>
<path fill="#9162AF" opacity="1.000000" stroke="none" 
	d="
M331.445740,48.073341 
	C327.871216,48.010468 324.759491,47.908573 321.312195,47.585533 
	C328.688660,47.278862 336.400696,47.193336 344.569977,47.227013 
	C340.654327,47.575581 336.281433,47.804951 331.445740,48.073341 
z"/>
<path fill="#9C51EE" opacity="1.000000" stroke="none" 
	d="
M427.984619,93.015259 
	C428.625244,94.005341 429.265900,94.995415 430.018799,96.264671 
	C428.660400,96.444168 427.189758,96.344475 425.116577,95.855186 
	C423.008942,95.312523 421.503876,95.159470 419.624542,95.004120 
	C418.501862,94.998405 417.753387,94.994980 417.283936,94.709610 
	C421.036804,93.956863 424.510712,93.486061 427.984619,93.015259 
z"/>
<path fill="#9C51EE" opacity="1.000000" stroke="none" 
	d="
M451.453369,163.149506 
	C452.076111,161.355804 453.060577,159.523392 454.172516,157.453613 
	C455.036621,157.616608 456.258453,157.847076 457.853149,158.134644 
	C456.088989,159.831436 453.952026,161.471115 451.453369,163.149506 
z"/>
<path fill="#C26DF5" opacity="1.000000" stroke="none" 
	d="
M90.535172,438.219299 
	C90.160507,436.750732 90.094437,435.215546 90.028366,433.680389 
	C91.287689,433.989502 92.547005,434.298584 93.965714,434.935181 
	C93.031311,436.226044 91.937538,437.189392 90.535172,438.219299 
z"/>
<path fill="#AC5CF7" opacity="1.000000" stroke="none" 
	d="
M417.004944,94.991554 
	C417.753387,94.994980 418.501862,94.998405 419.624939,95.259117 
	C419.999969,95.686462 420.000397,95.856522 420.000824,96.026573 
	C414.293823,96.083275 408.586792,96.139977 402.417725,96.086136 
	C401.955688,95.975609 401.971893,95.500237 402.438477,95.252945 
	C407.605011,95.000954 412.304993,94.996254 417.004944,94.991554 
z"/>
<path fill="#CB7BF3" opacity="1.000000" stroke="none" 
	d="
M42.000584,382.596497 
	C41.420300,383.323212 40.839691,383.646454 39.906990,383.979431 
	C39.471432,381.905884 39.387966,379.822601 39.398094,377.363953 
	C43.423710,377.231171 41.522266,380.285522 42.000584,382.596497 
z"/>
<path fill="#9C51EE" opacity="1.000000" stroke="none" 
	d="
M444.478210,169.240631 
	C444.201233,166.484421 445.254913,164.681000 448.839600,165.074463 
	C447.774200,166.468460 446.305267,167.835114 444.478210,169.240631 
z"/>
<path fill="#A758F5" opacity="1.000000" stroke="none" 
	d="
M188.578537,362.308777 
	C188.526718,358.565491 191.457291,357.828430 194.776093,357.104370 
	C193.071533,358.811035 190.991608,360.519653 188.578537,362.308777 
z"/>
<path fill="#A758F5" opacity="1.000000" stroke="none" 
	d="
M182.430023,367.070312 
	C183.932297,365.487427 185.767303,363.832092 187.976166,362.252747 
	C186.487610,363.885132 184.625198,365.441528 182.430023,367.070312 
z"/>
<path fill="#9C51EE" opacity="1.000000" stroke="none" 
	d="
M430.400757,142.389053 
	C431.948639,143.494354 434.348236,144.887283 430.848297,147.017517 
	C430.452881,145.625534 430.369202,144.213135 430.400757,142.389053 
z"/>
<path fill="#A758F5" opacity="1.000000" stroke="none" 
	d="
M212.342926,343.974823 
	C213.455643,342.720154 214.884766,341.371338 216.684753,340.030151 
	C215.590164,341.318787 214.124741,342.599701 212.342926,343.974823 
z"/>
<path fill="#9162AF" opacity="1.000000" stroke="none" 
	d="
M39.176086,346.399139 
	C39.544338,348.039307 39.789173,350.123016 40.030159,352.947296 
	C40.052723,354.126770 40.079132,354.565735 40.105541,355.004669 
	C40.105541,355.004669 39.728024,355.117035 39.531090,355.117950 
	C39.240326,352.360138 39.146500,349.601440 39.176086,346.399139 
z"/>
<path fill="#A758F5" opacity="1.000000" stroke="none" 
	d="
M217.354050,339.969086 
	C218.501038,338.737671 219.966583,337.418365 221.793015,336.101135 
	C220.660141,337.362518 219.166382,338.621857 217.354050,339.969086 
z"/>
<path fill="#CE7FF2" opacity="1.000000" stroke="none" 
	d="
M39.382088,269.391968 
	C39.672089,270.270691 39.858032,271.540680 39.751194,272.904419 
	C39.398285,271.926514 39.338158,270.854889 39.382088,269.391968 
z"/>
<path fill="#9162AF" opacity="1.000000" stroke="none" 
	d="
M312.604523,47.219208 
	C310.559296,47.484188 308.078552,47.627552 305.283691,47.559010 
	C307.369415,47.263935 309.769196,47.180763 312.604523,47.219208 
z"/>
<path fill="#010107" opacity="1.000000" stroke="none" 
	d="
M207.798584,234.877075 
	C205.635376,235.278809 203.223450,235.366562 200.389984,235.282501 
	C202.495590,234.928177 205.022736,234.745651 207.798584,234.877075 
z"/>
<path fill="#CB7BF3" opacity="1.000000" stroke="none" 
	d="
M39.380047,365.389099 
	C39.669697,366.270691 39.852852,367.543701 39.741982,368.909058 
	C39.389816,367.927765 39.331688,366.854126 39.380047,365.389099 
z"/>
<path fill="#010009" opacity="1.000000" stroke="none" 
	d="
M279.841553,140.960907 
	C277.981201,141.377182 275.885529,141.466858 273.358856,141.419495 
	C275.153961,141.066391 277.380096,140.850342 279.841553,140.960907 
z"/>
<path fill="#9C51EE" opacity="1.000000" stroke="none" 
	d="
M430.368256,137.351028 
	C430.673401,137.944107 430.869812,138.910721 430.781769,139.949921 
	C430.418060,139.256516 430.338776,138.490555 430.368256,137.351028 
z"/>
<path fill="#9C51EE" opacity="1.000000" stroke="none" 
	d="
M458.395660,158.250290 
	C458.632538,157.641754 459.083862,157.042252 459.738281,156.643738 
	C459.497650,157.316269 459.053864,157.787811 458.395660,158.250290 
z"/>
<path fill="#A758F5" opacity="1.000000" stroke="none" 
	d="
M420.409302,96.134384 
	C420.000397,95.856522 419.999969,95.686462 419.999176,95.261414 
	C421.503876,95.159470 423.008942,95.312523 424.764771,95.745705 
	C423.616272,96.097946 422.217041,96.170067 420.409302,96.134384 
z"/>
<path fill="#9162AF" opacity="1.000000" stroke="none" 
	d="
M61.652786,47.145241 
	C60.850220,47.396198 59.647175,47.532814 58.199623,47.465706 
	C59.054180,47.184956 60.153240,47.107925 61.652786,47.145241 
z"/>
<path fill="#04030B" opacity="1.000000" stroke="none" 
	d="
M404.826721,369.791840 
	C404.546631,370.415588 404.085571,370.812469 403.308777,371.148438 
	C403.543976,370.579987 404.094849,370.072479 404.826721,369.791840 
z"/>
<path fill="#010009" opacity="1.000000" stroke="none" 
	d="
M269.891083,140.996124 
	C269.278503,141.389114 268.484619,141.486053 267.307678,141.450195 
	C267.852997,141.111633 268.781403,140.905838 269.891083,140.996124 
z"/>
<path fill="#A758F5" opacity="1.000000" stroke="none" 
	d="
M198.308136,354.924744 
	C198.587555,354.367798 199.179901,353.744354 200.141235,353.131012 
	C199.880478,353.713501 199.250763,354.285889 198.308136,354.924744 
z"/>
<path fill="#B766F4" opacity="1.000000" stroke="none" 
	d="
M105.546280,426.366486 
	C105.672615,425.979858 106.108528,425.539215 106.889481,425.091003 
	C106.774963,425.493103 106.315414,425.902771 105.546280,426.366486 
z"/>
<path fill="#A758F5" opacity="1.000000" stroke="none" 
	d="
M180.682556,368.452759 
	C180.746994,368.050598 181.098984,367.577850 181.791290,367.101685 
	C181.744431,367.526276 181.357269,367.954224 180.682556,368.452759 
z"/>
<path fill="#9162AF" opacity="1.000000" stroke="none" 
	d="
M40.768902,47.171509 
	C40.676216,47.565941 40.292698,47.852097 39.664906,48.154388 
	C39.773113,47.801426 40.125591,47.432327 40.768902,47.171509 
z"/>
<path fill="#A758F5" opacity="1.000000" stroke="none" 
	d="
M196.433350,356.253937 
	C196.545578,355.888702 196.955124,355.475555 197.677628,355.028473 
	C197.570602,355.398376 197.150635,355.802185 196.433350,356.253937 
z"/>
<path fill="#9162AF" opacity="1.000000" stroke="none" 
	d="
M39.197662,337.301300 
	C39.556732,337.453674 39.790646,337.957733 40.079208,338.745239 
	C40.133854,339.028656 39.721565,339.114502 39.511021,339.111938 
	C39.224487,338.623901 39.148495,338.138428 39.197662,337.301300 
z"/>
<path fill="#9162AF" opacity="1.000000" stroke="none" 
	d="
M261.707489,47.248451 
	C261.463074,47.486050 260.875854,47.609077 260.122253,47.547318 
	C260.425476,47.286308 260.895050,47.210094 261.707489,47.248451 
z"/>
<path fill="#010009" opacity="1.000000" stroke="none" 
	d="
M259.932098,141.073059 
	C259.596436,141.435333 259.111786,141.521240 258.275085,141.478134 
	C258.543060,141.164978 259.163055,140.980850 259.932098,141.073059 
z"/>
<path fill="#9162AF" opacity="1.000000" stroke="none" 
	d="
M289.783600,47.271202 
	C289.752472,47.461525 289.445221,47.555054 289.040375,47.488426 
	C289.131012,47.276985 289.319244,47.225693 289.783600,47.271202 
z"/>
<path fill="#A758F5" opacity="1.000000" stroke="none" 
	d="
M209.385864,346.190125 
	C209.352921,345.974426 209.615021,345.618988 210.209412,345.172424 
	C210.254776,345.404327 209.967834,345.727356 209.385864,346.190125 
z"/>
<path fill="#9162AF" opacity="1.000000" stroke="none" 
	d="
M273.775085,47.219563 
	C273.755737,47.416798 273.458069,47.528831 273.056152,47.490154 
	C273.133575,47.271084 273.315186,47.202724 273.775085,47.219563 
z"/>
<path fill="#9162AF" opacity="1.000000" stroke="none" 
	d="
M264.777252,47.272484 
	C264.752045,47.469578 264.448120,47.572479 264.042023,47.519257 
	C264.126068,47.301521 264.312286,47.239906 264.777252,47.272484 
z"/>
<path fill="#9162AF" opacity="1.000000" stroke="none" 
	d="
M241.779724,47.197113 
	C241.757278,47.388496 241.455353,47.494175 241.049088,47.446754 
	C241.129898,47.232910 241.315079,47.172157 241.779724,47.197113 
z"/>
<path fill="#9162AF" opacity="1.000000" stroke="none" 
	d="
M200.782898,47.205070 
	C200.758896,47.400723 200.451477,47.508583 200.039566,47.458599 
	C200.123215,47.239594 200.311325,47.178436 200.782898,47.205070 
z"/>
<path fill="#AD5CF2" opacity="1.000000" stroke="none" 
	d="
M163.318466,381.976898 
	C163.268402,381.765106 163.509521,381.456787 164.022720,381.014587 
	C164.066406,381.213928 163.838028,381.547180 163.318466,381.976898 
z"/>
<path fill="#9C51EE" opacity="1.000000" stroke="none" 
	d="
M430.274414,97.198456 
	C430.633972,97.132011 430.738892,97.392601 430.524048,97.832993 
	C430.350647,97.779602 430.289185,97.617172 430.274414,97.198456 
z"/>
<path fill="#9C51EE" opacity="1.000000" stroke="none" 
	d="
M430.316650,104.274017 
	C430.690704,104.222733 430.771149,104.460739 430.526123,104.853699 
	C430.415253,104.945702 430.237671,104.500359 430.316650,104.274017 
z"/>
<path fill="#010009" opacity="1.000000" stroke="none" 
	d="
M353.954224,141.089722 
	C353.867798,141.363739 353.682922,141.441406 353.225769,141.391083 
	C353.254272,141.139847 353.555023,141.016617 353.954224,141.089722 
z"/>
<path fill="#A758F5" opacity="1.000000" stroke="none" 
	d="
M195.346649,357.106812 
	C195.283081,356.867432 195.499802,356.571228 195.995178,356.214478 
	C196.058212,356.452576 195.842590,356.751251 195.346649,357.106812 
z"/>
<path fill="#010009" opacity="1.000000" stroke="none" 
	d="
M396.841827,141.066223 
	C396.761047,141.344666 396.601440,141.431427 396.195068,141.402618 
	C396.219879,141.149551 396.491425,141.012054 396.841827,141.066223 
z"/>
<path fill="#9162AF" opacity="1.000000" stroke="none" 
	d="
M177.781342,47.180046 
	C177.759293,47.374020 177.454910,47.480965 177.044739,47.434521 
	C177.125610,47.218430 177.312317,47.155724 177.781342,47.180046 
z"/>
<path fill="#A755F7" opacity="1.000000" stroke="none" 
	d="
M417.283936,94.709610 
	C412.304993,94.996254 407.605011,95.000954 402.435120,95.015152 
	C399.604218,95.022354 397.243286,95.020073 394.481018,94.652122 
	C397.452667,89.924255 399.422607,85.611023 396.306335,79.947731 
	C394.491302,76.649178 394.365021,72.466454 392.943909,68.894402 
	C391.247406,64.630142 389.480194,60.226112 386.802795,56.571964 
	C384.575043,53.531521 380.986816,51.487881 378.001221,49.002716 
	C382.688660,49.000450 387.376068,48.998177 392.908630,48.997463 
	C395.139435,48.716438 396.525055,48.433861 397.910706,48.151279 
	C398.379486,48.132099 398.848267,48.112923 399.667114,48.135983 
	C400.017212,48.178219 400.005280,48.588577 400.004089,48.793827 
	C401.603607,50.330853 403.098419,52.635708 404.823517,52.823315 
	C411.717682,53.573093 418.689331,53.578369 425.618958,54.054131 
	C427.625641,54.191898 429.587585,54.980759 431.570007,55.471130 
	C430.711365,57.317062 429.852753,59.163002 429.221924,60.519184 
	C430.879242,63.680519 432.428314,66.948975 434.301666,70.019615 
	C434.871368,70.953392 436.279480,71.735306 437.401978,71.894882 
	C439.521027,72.196114 441.711700,72.019630 443.872162,71.997719 
	C447.069580,71.965294 448.999664,73.390060 448.963440,76.706734 
	C448.932281,79.561081 449.988831,80.810028 452.986938,81.159927 
	C454.418121,81.326965 456.721313,83.204895 456.714478,84.295853 
	C456.704895,85.820053 455.068634,88.390778 453.828003,88.583931 
	C452.265533,88.827194 449.085510,87.345284 448.896118,86.221375 
	C448.136505,81.713326 445.271271,81.878059 441.978149,81.969162 
	C437.579315,82.090843 433.159424,81.780838 428.778259,82.084618 
	C426.268402,82.258644 423.817383,83.281563 419.921967,84.289001 
	C425.326447,87.322586 429.377014,89.596222 433.427582,91.869850 
	C433.217163,92.297577 433.006744,92.725311 432.796326,93.153046 
	C431.321777,92.946068 429.847260,92.739098 428.178680,92.773689 
	C424.510712,93.486061 421.036804,93.956863 417.283936,94.709610 
z"/>
<path fill="#9C51EE" opacity="1.000000" stroke="none" 
	d="
M464.613220,48.361927 
	C468.958527,48.068348 473.013245,48.057152 477.527466,48.097256 
	C477.463348,50.862236 476.939697,53.575916 476.416016,56.289597 
	C476.120331,56.352554 475.824677,56.415512 475.528992,56.478470 
	C475.202698,54.164227 474.876434,51.849979 474.565186,49.642384 
	C472.807922,50.902889 471.354004,51.974960 469.869385,53.002724 
	C468.323334,54.073082 465.320435,55.342422 465.449127,56.102272 
	C465.856201,58.505726 466.847229,61.561916 468.675232,62.814434 
	C472.326569,65.316277 471.102448,68.465317 470.372192,71.188805 
	C470.173248,71.930786 466.208649,72.033653 464.046021,71.785858 
	C461.270416,71.467842 458.882233,70.471710 458.245789,66.928886 
	C457.998169,65.550598 455.895813,64.411049 454.478821,63.382420 
	C453.886841,62.952694 452.577820,63.395237 452.111847,62.926830 
	C449.677460,60.479725 447.840057,57.034870 444.962524,55.545692 
	C442.062744,54.045017 437.716827,55.033600 438.004456,49.401543 
	C446.777466,48.885094 455.550049,48.764702 464.613220,48.361927 
z"/>
<path fill="#9C51EE" opacity="1.000000" stroke="none" 
	d="
M476.001221,65.000847 
	C476.001221,66.790718 476.001221,68.580589 476.001221,70.370461 
	C475.320465,70.288933 474.639709,70.207413 473.958954,70.125885 
	C474.395264,68.469872 474.831573,66.813858 475.633972,65.078918 
	C476.000000,65.000000 476.001221,65.000847 476.001221,65.000847 
z"/>
<path fill="#9C51EE" opacity="1.000000" stroke="none" 
	d="
M475.998810,64.999207 
	C475.677734,63.566017 475.357880,62.133614 475.037994,60.701210 
	C475.535248,60.633759 476.032501,60.566303 476.529755,60.498852 
	C476.529755,61.841007 476.529755,63.183167 476.265503,64.763084 
	C476.001221,65.000847 476.000000,65.000000 475.998810,64.999207 
z"/>
<path fill="#9C51EE" opacity="1.000000" stroke="none" 
	d="
M473.007782,94.353241 
	C473.003418,92.386765 473.003418,90.788124 473.003418,89.189484 
	C473.320587,89.181007 473.637756,89.172531 473.954926,89.164055 
	C473.954926,91.126030 473.957153,93.088013 473.950653,95.049965 
	C473.950134,95.205635 473.889008,95.361099 473.856049,95.516663 
	C473.574738,95.251465 473.293427,94.986267 473.007782,94.353241 
z"/>
<path fill="#9C51EE" opacity="1.000000" stroke="none" 
	d="
M432.468262,96.452637 
	C432.521210,96.421722 432.415344,96.483551 432.468262,96.452637 
z"/>
<path fill="#CC7CF4" opacity="1.000000" stroke="none" 
	d="
M64.607651,263.992462 
	C64.998772,270.299438 64.983276,276.598938 65.002960,282.898315 
	C65.013039,286.123535 63.751141,288.346283 60.376217,288.931763 
	C56.495792,289.604980 54.548061,287.228333 55.304890,283.382843 
	C56.121765,279.232178 56.461346,274.987244 56.998394,270.782013 
	C57.596863,266.095947 55.363640,263.984131 50.403023,264.000793 
	C51.316597,262.131470 52.389820,260.015564 53.993977,258.440338 
	C59.010975,253.513809 63.775486,248.796219 63.120094,240.717636 
	C62.545082,233.629898 63.251621,226.446182 62.901348,219.329025 
	C62.705437,215.348404 61.002350,211.433044 60.876545,207.459824 
	C60.641834,200.047134 61.062405,192.613708 61.605091,185.563080 
	C62.000420,192.190384 62.029198,198.443695 61.986259,204.696518 
	C61.971062,206.909637 62.296246,208.450790 65.000000,207.000000 
	C65.662506,209.450699 66.899918,211.905334 66.883163,214.351379 
	C66.825531,222.762741 66.381424,231.173584 65.979698,239.579605 
	C65.751816,244.348190 65.486855,249.128525 64.878845,253.857315 
	C64.692413,255.307251 63.416405,256.682068 62.452312,257.948944 
	C61.470451,259.239197 60.258251,260.354156 59.146900,261.545837 
	C60.836472,262.358856 62.526043,263.171906 64.607651,263.992462 
z"/>
<path fill="#CC7CF4" opacity="1.000000" stroke="none" 
	d="
M76.623627,96.046219 
	C76.332932,100.698158 75.527519,105.382042 75.032906,110.098526 
	C74.310226,116.989883 73.804031,123.904068 73.223450,130.810028 
	C73.140564,131.795898 72.725372,133.126022 73.194199,133.730042 
	C79.816437,142.261826 71.244553,150.581970 72.868011,159.030930 
	C72.990082,159.666214 72.012932,160.951935 71.275154,161.240250 
	C67.199104,162.833130 66.893951,166.023361 66.920677,169.774139 
	C66.947609,173.553940 66.333344,177.338318 65.655045,181.593842 
	C64.206810,182.378006 63.103558,182.688995 62.000305,183.000000 
	C62.889141,177.848801 64.053879,172.726547 64.598190,167.539200 
	C65.306557,160.788452 69.606407,154.732651 68.086472,147.528198 
	C67.497803,144.737946 68.250595,141.682892 67.801514,138.841858 
	C65.697189,125.529076 74.235863,113.731583 73.169960,100.539268 
	C73.057632,99.149063 75.168449,97.579231 76.623627,96.046219 
z"/>
<path fill="#CB7BF3" opacity="1.000000" stroke="none" 
	d="
M62.000160,183.333313 
	C63.103558,182.688995 64.206810,182.378006 65.655029,182.033508 
	C65.666664,190.021225 65.333336,198.042465 65.000000,206.531845 
	C62.296246,208.450790 61.971062,206.909637 61.986259,204.696518 
	C62.029198,198.443695 62.000420,192.190384 61.999794,185.468628 
	C61.999802,184.555557 61.999912,184.111099 62.000160,183.333313 
z"/>
<path fill="#CB7CF4" opacity="1.000000" stroke="none" 
	d="
M80.013123,59.477150 
	C80.406647,60.053528 80.503220,60.626118 80.599800,61.198711 
	C80.194321,61.193413 79.788841,61.188118 79.383362,61.182819 
	C79.494301,60.612999 79.605240,60.043182 80.013123,59.477150 
z"/>
<path fill="#CB7BF3" opacity="1.000000" stroke="none" 
	d="
M70.394035,248.905991 
	C69.870796,248.895447 69.652893,248.810379 69.625008,248.683548 
	C67.238144,237.828064 66.245911,226.931305 70.319008,216.296204 
	C71.349068,213.606644 72.381943,211.806824 70.024361,209.240768 
	C68.733597,207.835892 68.197151,205.358063 68.087852,203.322861 
	C67.820839,198.350830 67.971161,193.354614 68.008018,188.368530 
	C68.047974,182.963715 71.053696,178.895569 76.631439,177.041504 
	C76.666512,186.442535 76.290665,195.883850 76.020645,205.328186 
	C75.908989,209.233612 76.403473,213.188889 75.962456,217.046051 
	C74.806793,227.153580 73.301979,237.221573 71.875343,247.296692 
	C71.798103,247.842163 71.163322,248.308701 70.394035,248.905991 
z"/>
<path fill="#C774F4" opacity="1.000000" stroke="none" 
	d="
M68.058678,315.058289 
	C68.896080,314.011963 69.895905,313.174347 69.851646,312.396149 
	C69.536728,306.858337 71.921844,305.730286 77.076820,306.824310 
	C79.896400,307.422729 81.385269,307.948273 81.004066,310.977081 
	C80.962944,311.303802 80.996613,311.640320 81.000198,311.972229 
	C81.099098,321.115723 77.382935,323.589935 69.000763,319.637024 
	C68.097954,319.211273 68.136131,316.790100 68.058678,315.058289 
z"/>
<path fill="#CB7BF3" opacity="1.000000" stroke="none" 
	d="
M40.304886,354.847473 
	C40.079132,354.565735 40.052723,354.126770 40.060097,353.359833 
	C40.230663,353.584656 40.367447,354.137451 40.304886,354.847473 
z"/>
<path fill="#C776F6" opacity="1.000000" stroke="none" 
	d="
M160.999893,94.994736 
	C150.978622,94.995262 140.957352,94.995796 130.467285,94.992439 
	C130.418716,93.636353 130.838943,92.284149 131.129578,91.348976 
	C130.042130,89.490463 128.371536,87.853249 128.144974,86.036003 
	C127.194183,78.409653 126.516182,70.738457 126.081131,63.064247 
	C125.918495,60.195522 125.299255,58.897465 122.149025,58.948761 
	C112.697731,59.102665 112.696098,59.002422 114.001465,49.418255 
	C124.690536,49.003853 135.376816,49.001209 146.567810,49.345875 
	C149.577347,54.124668 155.121826,56.898109 154.350235,63.180969 
	C154.280655,63.747532 155.541260,64.797157 156.373764,65.098450 
	C159.661255,66.288254 160.092148,68.713676 160.055481,71.810585 
	C159.956604,80.166046 160.063339,80.167313 167.801559,83.027603 
	C167.865128,84.108116 168.102341,85.272034 167.969711,86.392166 
	C167.450256,90.778969 169.352905,92.450958 173.671646,92.046555 
	C176.298340,91.800591 179.022125,91.687210 181.593201,92.137375 
	C182.856552,92.358559 183.871841,93.996628 184.999390,94.993492 
	C182.957428,94.995445 180.915451,94.997391 178.346115,94.833832 
	C177.546585,94.776665 177.274445,94.885010 177.002304,94.993347 
	C172.312180,94.995033 167.622055,94.996719 162.375198,94.832809 
	C161.545609,94.776390 161.272751,94.885559 160.999893,94.994736 
M145.498489,90.710281 
	C146.537125,91.472824 147.601532,92.914902 148.609772,92.876633 
	C152.357452,92.734421 156.086624,92.105301 159.822754,91.658997 
	C159.813751,91.462402 159.804764,91.265808 159.795761,91.069206 
	C155.248489,90.785027 150.701233,90.500847 145.498489,90.710281 
z"/>
<path fill="#C977F6" opacity="1.000000" stroke="none" 
	d="
M80.279068,138.481079 
	C81.481308,137.937454 82.373070,137.628021 84.590492,136.858582 
	C83.737473,141.109070 83.077156,144.399353 82.416832,147.689651 
	C79.006569,144.822083 78.109428,141.975632 80.279068,138.481079 
z"/>
<path fill="#C473F5" opacity="1.000000" stroke="none" 
	d="
M185.448242,94.996689 
	C183.871841,93.996628 182.856552,92.358559 181.593201,92.137375 
	C179.022125,91.687210 176.298340,91.800591 173.671646,92.046555 
	C169.352905,92.450958 167.450256,90.778969 167.969711,86.392166 
	C168.102341,85.272034 167.865128,84.108116 167.801559,83.027603 
	C160.063339,80.167313 159.956604,80.166046 160.055481,71.810585 
	C160.092148,68.713676 159.661255,66.288254 156.373764,65.098450 
	C155.541260,64.797157 154.280655,63.747532 154.350235,63.180969 
	C155.121826,56.898109 149.577347,54.124668 147.036499,49.347359 
	C150.692276,48.999981 154.384079,48.998421 158.536072,48.996078 
	C172.352646,48.997440 185.709000,48.999584 199.541473,49.397972 
	C201.199722,50.860119 202.353409,52.795734 203.569107,52.835491 
	C207.925690,52.977947 208.840454,55.619007 208.977753,59.076908 
	C209.076599,61.565990 209.280243,64.099579 208.953873,66.548912 
	C206.974899,81.400414 210.870224,80.120491 195.565887,83.650665 
	C192.491898,91.100471 199.066376,89.571815 202.622406,90.606613 
	C201.951416,92.007729 201.463654,93.026253 200.975891,94.044769 
	C195.949631,94.363144 190.923370,94.681519 185.448242,94.996689 
z"/>
<path fill="#AD5CF2" opacity="1.000000" stroke="none" 
	d="
M144.226395,396.258057 
	C143.602081,395.972229 142.946915,395.612274 142.291748,395.252289 
	C142.455490,395.019470 142.619232,394.786652 142.782974,394.553833 
	C143.221817,394.920502 143.660645,395.287201 144.221161,395.950867 
	C144.342865,396.247864 144.195557,396.183960 144.226395,396.258057 
z"/>
<path fill="#C26DF5" opacity="1.000000" stroke="none" 
	d="
M95.529236,384.545898 
	C95.477676,384.575775 95.580788,384.516052 95.529236,384.545898 
z"/>
<path fill="#B160F5" opacity="1.000000" stroke="none" 
	d="
M152.469421,386.452942 
	C152.521988,386.422272 152.416855,386.483612 152.469421,386.452942 
z"/>
<path fill="#BD6AF7" opacity="1.000000" stroke="none" 
	d="
M224.567993,48.998009 
	C234.019104,48.999504 243.042496,49.002499 252.574036,49.373970 
	C254.470123,51.080982 255.756821,53.387077 257.268280,53.545227 
	C259.947968,53.825607 262.754974,52.458805 265.524811,52.385139 
	C275.488464,52.120144 285.761292,50.289326 294.524658,57.287247 
	C298.060669,60.110889 297.710815,62.427280 293.909424,65.007179 
	C292.229156,66.147530 290.428650,68.272484 290.180054,70.148849 
	C289.340240,76.486595 289.171295,82.913223 288.683929,90.237091 
	C284.467590,90.237091 279.555939,90.237091 274.644287,90.237091 
	C274.642487,90.679886 274.640656,91.122688 274.638855,91.565483 
	C275.851196,91.713539 277.105255,91.712555 278.267914,92.038101 
	C281.533325,92.952400 284.761078,94.001266 288.003662,94.997070 
	C270.983002,94.996964 253.962341,94.996857 236.407883,94.643341 
	C234.645111,93.606903 233.416138,92.923889 231.609482,91.919815 
	C238.984940,88.512688 238.984955,88.512688 239.000015,80.671043 
	C239.013519,73.637718 240.393799,72.548271 247.147507,73.053177 
	C248.664322,73.166573 250.319321,71.431602 251.910706,70.547546 
	C250.881058,68.969398 249.941345,66.109932 248.806519,66.030289 
	C243.280823,65.642471 237.703033,66.055862 232.143539,66.061676 
	C229.977951,66.063942 226.296082,66.337379 225.946060,65.447952 
	C225.084702,63.259056 224.990356,60.112030 225.974213,57.994621 
	C227.825867,54.009609 227.675873,53.196812 223.285797,51.951645 
	C221.707550,51.503998 220.422775,50.021694 219.004059,49.011581 
	C220.716125,49.007553 222.428207,49.003532 224.567993,48.998009 
z"/>
<path fill="#AC5CF7" opacity="1.000000" stroke="none" 
	d="
M377.532440,49.000854 
	C380.986816,51.487881 384.575043,53.531521 386.802795,56.571964 
	C389.480194,60.226112 391.247406,64.630142 392.943909,68.894402 
	C394.365021,72.466454 394.491302,76.649178 396.306335,79.947731 
	C399.422607,85.611023 397.452667,89.924255 394.037384,94.648811 
	C378.975647,95.007111 363.956299,95.003059 348.462189,94.618164 
	C347.807800,92.997490 347.628143,91.757660 347.433838,90.416611 
	C348.967010,90.097466 350.208313,89.839073 351.583557,89.552795 
	C351.032745,84.765259 351.021301,80.100876 349.880890,75.731117 
	C347.698029,67.366989 350.466705,57.858902 344.086487,50.468452 
	C343.834259,50.176262 344.022217,49.504044 344.005066,49.008911 
	C355.024567,49.005604 366.044128,49.002296 377.532440,49.000854 
z"/>
<path fill="#B866F7" opacity="1.000000" stroke="none" 
	d="
M288.471924,94.998848 
	C284.761078,94.001266 281.533325,92.952400 278.267914,92.038101 
	C277.105255,91.712555 275.851196,91.713539 274.638855,91.565483 
	C274.640656,91.122688 274.642487,90.679886 274.644287,90.237091 
	C279.555939,90.237091 284.467590,90.237091 288.683929,90.237091 
	C289.171295,82.913223 289.340240,76.486595 290.180054,70.148849 
	C290.428650,68.272484 292.229156,66.147530 293.909424,65.007179 
	C297.710815,62.427280 298.060669,60.110889 294.524658,57.287247 
	C285.761292,50.289326 275.488464,52.120144 265.524811,52.385139 
	C262.754974,52.458805 259.947968,53.825607 257.268280,53.545227 
	C255.756821,53.387077 254.470123,51.080982 253.042892,49.377533 
	C265.689667,49.007881 278.375702,49.003147 291.530273,48.997986 
	C298.687958,48.999012 305.377106,49.000469 312.570374,49.349854 
	C317.244904,53.180019 321.415375,56.662254 325.588837,60.147030 
	C318.081055,69.180565 318.444763,80.799431 316.093628,90.249695 
	C317.722168,92.224663 318.861694,93.606575 320.001221,94.988495 
	C309.647552,94.992538 299.293884,94.996582 288.471924,94.998848 
z"/>
<path fill="#C06FF7" opacity="1.000000" stroke="none" 
	d="
M218.535370,49.007256 
	C220.422775,50.021694 221.707550,51.503998 223.285797,51.951645 
	C227.675873,53.196812 227.825867,54.009609 225.974213,57.994621 
	C224.990356,60.112030 225.084702,63.259056 225.946060,65.447952 
	C226.296082,66.337379 229.977951,66.063942 232.143539,66.061676 
	C237.703033,66.055862 243.280823,65.642471 248.806519,66.030289 
	C249.941345,66.109932 250.881058,68.969398 251.910706,70.547546 
	C250.319321,71.431602 248.664322,73.166573 247.147507,73.053177 
	C240.393799,72.548271 239.013519,73.637718 239.000015,80.671043 
	C238.984955,88.512688 238.984940,88.512688 231.609482,91.919815 
	C233.416138,92.923889 234.645111,93.606903 235.939545,94.641190 
	C232.638443,94.995850 229.271912,94.999252 225.445709,95.008774 
	C217.187088,94.880455 209.388123,94.746025 201.282532,94.328186 
	C201.463654,93.026253 201.951416,92.007729 202.622406,90.606613 
	C199.066376,89.571815 192.491898,91.100471 195.565887,83.650665 
	C210.870224,80.120491 206.974899,81.400414 208.953873,66.548912 
	C209.280243,64.099579 209.076599,61.565990 208.977753,59.076908 
	C208.840454,55.619007 207.925690,52.977947 203.569107,52.835491 
	C202.353409,52.795734 201.199722,50.860119 200.010315,49.399841 
	C206.024261,49.004623 212.045456,49.003777 218.535370,49.007256 
z"/>
<path fill="#B260F8" opacity="1.000000" stroke="none" 
	d="
M320.469727,94.992966 
	C318.861694,93.606575 317.722168,92.224663 316.093628,90.249695 
	C318.444763,80.799431 318.081055,69.180565 325.588837,60.147030 
	C321.415375,56.662254 317.244904,53.180019 313.039154,49.351616 
	C318.689362,49.002995 324.374847,49.000538 330.527740,48.997833 
	C335.022583,48.999458 339.050049,49.001335 343.541290,49.006062 
	C344.022217,49.504044 343.834259,50.176262 344.086487,50.468452 
	C350.466705,57.858902 347.698029,67.366989 349.880890,75.731117 
	C351.021301,80.100876 351.032745,84.765259 351.583557,89.552795 
	C350.208313,89.839073 348.967010,90.097466 347.433838,90.416611 
	C347.628143,91.757660 347.807800,92.997490 347.993530,94.613396 
	C338.979156,94.992126 329.958679,94.994781 320.469727,94.992966 
z"/>
<path fill="#C473F5" opacity="1.000000" stroke="none" 
	d="
M161.249847,94.995956 
	C161.272751,94.885559 161.545609,94.776390 161.909058,94.829330 
	C161.999664,94.991447 161.499802,94.997169 161.249847,94.995956 
z"/>
<path fill="#C473F5" opacity="1.000000" stroke="none" 
	d="
M177.251312,94.995148 
	C177.274445,94.885010 177.546585,94.776665 177.908539,94.830605 
	C177.998337,94.992882 177.500320,94.996956 177.251312,94.995148 
z"/>
<path fill="#AC5CF7" opacity="1.000000" stroke="none" 
	d="
M397.503723,48.111221 
	C396.525055,48.433861 395.139435,48.716438 393.374451,48.996826 
	C392.995117,48.994637 392.992706,48.571808 392.985474,48.361603 
	C394.351074,48.124649 395.723907,48.097908 397.503723,48.111221 
z"/>
<path fill="#C473F5" opacity="1.000000" stroke="none" 
	d="
M145.826233,90.463470 
	C150.701233,90.500847 155.248489,90.785027 159.795761,91.069206 
	C159.804764,91.265808 159.813751,91.462402 159.822754,91.658997 
	C156.086624,92.105301 152.357452,92.734421 148.609772,92.876633 
	C147.601532,92.914902 146.537125,91.472824 145.826233,90.463470 
z"/>
</svg>